<svg xmlns="http://www.w3.org/2000/svg" viewBox="0 0 500 500"><g id="freepik--Floor--inject-40"><path id="freepik--floor--inject-40" d="M95.18,272.73c-85.51,49.36-85.51,129.4,0,178.77s224.14,49.36,309.64,0,85.51-129.41,0-178.77S180.68,223.36,95.18,272.73Z" style="fill:#f5f5f5"></path></g><g id="freepik--Plants--inject-40"><g id="freepik--plants--inject-40"><path d="M420.18,387.86a.66.66,0,0,1-.2,0l-6-1.55a.54.54,0,0,1-.36-.33c-.05-.16-5.28-15.81,5.87-37,7.95-15.14,20.4-25,28.33-22.39a8.82,8.82,0,0,1,6.19,6.29,10.27,10.27,0,0,1-3.23,9.56c-.62.6-1.59,1.43-2.82,2.47-7.6,6.46-25.39,21.6-27.32,42.51a.5.5,0,0,1-.22.38A.73.73,0,0,1,420.18,387.86Zm-5.68-2.49,5.15,1.32c2.24-21,20-36.12,27.62-42.6,1.21-1,2.17-1.84,2.76-2.43a9.2,9.2,0,0,0,3-8.58,7.73,7.73,0,0,0-5.5-5.54c-7.47-2.42-19.37,7.19-27.1,21.89C410.24,368.74,413.89,383.27,414.5,385.37Z" style="fill:#009999"></path><path d="M416.77,387h-.07a.52.52,0,0,1-.53-.51c-.44-24.42,16.46-48,27.84-52.8a.52.52,0,0,1,.41.95c-11.25,4.79-27.63,28.67-27.21,51.83A.53.53,0,0,1,416.77,387Z" style="fill:#009999"></path><path d="M414.17,386.31a.46.46,0,0,1-.23,0l-4.07-1.23a.52.52,0,0,1-.35-.34c-.07-.23-7.26-23.57-2-55,2.7-16,12-31.64,22.2-37.15,4.88-2.64,9.69-3,14.27-1,2.59,1.13,4.22,2.79,4.83,4.94,1.68,6-4.5,14.8-11,24.18-4.58,6.56-9.31,13.34-11.47,19.33a.52.52,0,0,1-1-.35c2.2-6.12,7-13,11.58-19.58,6.4-9.16,12.44-17.82,10.89-23.3-.53-1.86-1.92-3.26-4.24-4.27-4.28-1.86-8.78-1.55-13.37.95-9.91,5.36-19,20.67-21.67,36.4-4.95,29.41,1.09,51.63,1.86,54.26l3.8,1.15a.52.52,0,0,1-.07,1Z" style="fill:#009999"></path><path d="M413.16,371.45h0a.51.51,0,0,1-.55-.47c-3.08-37.79,18-68,24.24-73.24a.52.52,0,0,1,.73.07.51.51,0,0,1-.07.73c-6.14,5.12-26.91,35-23.87,72.35A.52.52,0,0,1,413.16,371.45Z" style="fill:#009999"></path></g><g id="freepik--plants--inject-40"><path d="M76.88,387.77a.5.5,0,0,1-.22-.38c-1.92-20.91-19.72-36.05-27.32-42.51-1.23-1-2.19-1.87-2.82-2.47a10.27,10.27,0,0,1-3.23-9.56,8.82,8.82,0,0,1,6.19-6.29C57.41,324,69.86,333.81,77.82,349c11.14,21.21,5.91,36.86,5.86,37a.52.52,0,0,1-.36.33l-6,1.55a.74.74,0,0,1-.21,0A.73.73,0,0,1,76.88,387.77Zm0-38.34c-7.73-14.7-19.63-24.31-27.1-21.89a7.75,7.75,0,0,0-5.5,5.54,9.25,9.25,0,0,0,3,8.58c.6.59,1.55,1.4,2.77,2.43,7.62,6.48,25.37,21.58,27.61,42.6l5.15-1.32C83.39,383.27,87,368.74,76.9,349.43Z" style="fill:#009999"></path><path d="M80.51,387h.07a.51.51,0,0,0,.53-.51c.45-24.42-16.46-48-27.84-52.8a.52.52,0,0,0-.41.95c11.25,4.79,27.63,28.67,27.21,51.83A.53.53,0,0,0,80.51,387Z" style="fill:#009999"></path><path d="M83.11,386.31a.46.46,0,0,0,.23,0l4.07-1.23a.52.52,0,0,0,.35-.34c.07-.23,7.26-23.57,2-55-2.7-16-12-31.64-22.19-37.15-4.89-2.64-9.69-3-14.28-1-2.59,1.13-4.22,2.79-4.82,4.94-1.69,6,4.49,14.8,11,24.18,4.57,6.56,9.3,13.34,11.46,19.33a.52.52,0,0,0,1-.35c-2.2-6.12-7-13-11.58-19.58-6.4-9.16-12.43-17.82-10.89-23.3.53-1.86,1.92-3.26,4.25-4.27,4.27-1.86,8.77-1.55,13.36.95,9.91,5.36,19,20.67,21.67,36.4,5,29.41-1.09,51.63-1.85,54.26L83,385.3a.52.52,0,0,0,.07,1Z" style="fill:#009999"></path><path d="M84.12,371.45h0a.53.53,0,0,0,.56-.47c3.07-37.79-18-68-24.25-73.24a.52.52,0,1,0-.66.8c6.14,5.12,26.91,35,23.87,72.35A.52.52,0,0,0,84.12,371.45Z" style="fill:#009999"></path></g></g><g id="freepik--Shadows--inject-40"><path id="freepik--Shadow--inject-40" d="M360,392.39,291,432.18a7.88,7.88,0,0,1-7.12-.29l-10-5.78c-2.11-1.22-2.34-3.06-.51-4.11l68.92-39.8a7.94,7.94,0,0,1,7.13.3l10,5.78C361.56,389.49,361.79,391.34,360,392.39Z" style="fill:#e0e0e0"></path><ellipse id="freepik--shadow--inject-40" cx="134.73" cy="407.46" rx="69.36" ry="40.04" style="fill:#e0e0e0"></ellipse><ellipse id="freepik--shadow--inject-40" cx="364.96" cy="407.46" rx="69.36" ry="40.04" style="fill:#e0e0e0"></ellipse><ellipse id="freepik--shadow--inject-40" cx="243.01" cy="388.94" rx="69.36" ry="40.04" style="fill:#e0e0e0"></ellipse><path id="freepik--shadow--inject-40" d="M200.66,409c-24.36,14.06-24.36,36.86,0,50.93s63.85,14.06,88.21,0,24.36-36.87,0-50.93S225,394.93,200.66,409Z" style="fill:#e0e0e0"></path></g><g id="freepik--speech-bubbles-2--inject-40"><g id="freepik--speech-bubble--inject-40"><g id="freepik--speech-bubble--inject-40"><path d="M169.74,114.5l.24-9s-14.61-2-13.06-17.1c1-9.46,6.08-16.79,35.83-16,32.85.93,29,20.81,25.33,26.39-5.45,8.4-17.81,9.16-41.3,7.85Z" style="fill:#fafafa"></path><path d="M169.56,105.86c-2.28-.44-14.48-3.47-13.05-17.48,1.06-10.38,7.61-17.12,36.25-16.32,17.28.49,23.89,6.29,26.39,11.06,3.16,6,1.3,12.85-.73,16-5.5,8.47-17.76,9.35-41.47,8l-7.65,8.46Zm7.24.45c23.52,1.3,35.64.49,40.94-7.67,1.92-3,3.69-9.42.69-15.14C215,76.93,206.1,73.26,192.74,72.88c-31.13-.88-34.56,7.21-35.42,15.58C155.83,103,169.45,105,170,105.11l.36,0-.22,8.25,6.44-7.12Z" style="fill:#e0e0e0"></path></g></g><g id="freepik--speech-bubble--inject-40"><g id="freepik--speech-bubble--inject-40"><path d="M347.69,89.12l-.24-9s14.61-1.94,13.06-17.1c-1-9.46-6.08-16.78-35.83-15.94-32.85.93-29,20.81-25.33,26.39,5.45,8.39,17.81,9.15,41.3,7.85Z" style="fill:#fafafa"></path><path d="M348.13,90.21l-7.65-8.46c-23.71,1.3-36,.42-41.48-8-2-3.11-3.89-9.94-.72-16,2.5-4.78,9.11-10.57,26.39-11.06,28.64-.8,35.18,5.94,36.24,16.31,1.44,14-10.76,17-13,17.48Zm-7.31-9.3L347.26,88,347,79.78l.36,0c.58-.08,14.2-2.08,12.7-16.65-.85-8.37-4.28-16.47-35.41-15.59-13.36.38-22.25,4.06-25.69,10.62-3,5.72-1.23,12.19.69,15.15,5.3,8.15,17.42,9,40.94,7.66Z" style="fill:#e0e0e0"></path></g></g><g id="freepik--speech-bubble--inject-40"><g id="freepik--speech-bubble--inject-40"><path d="M67,148.6l-11.54-6.51s-18.08.22-26.27-5.5c-7.76-5.43-11.35-19.09-.25-28,10.48-8.4,38.14-8.32,50-.21,8.23,5.62,11.26,17.76,5.25,25.24C79.1,139.93,65.88,141,65.88,141Z" style="fill:#fafafa"></path><path d="M55.3,142.51c-1.67,0-18.44,0-26.4-5.58a18.09,18.09,0,0,1-7.44-14c-.18-5.58,2.36-10.78,7.17-14.63,10.49-8.4,38.34-8.53,50.51-.22a20.18,20.18,0,0,1,8.39,13.52,15.68,15.68,0,0,1-3,12.32c-4.65,5.79-15.74,7.22-18.12,7.47l1.12,8ZM29.15,108.92c-5.89,4.72-7,10.19-6.86,14a17.25,17.25,0,0,0,7.09,13.38c8,5.58,25.84,5.43,26,5.42h.11l10.92,6.15-1-7.21.44,0c.13,0,13.1-1.12,18-7.2a14.94,14.94,0,0,0,2.87-11.68,19.33,19.33,0,0,0-8-13c-5.91-4-15.6-6-25.13-6C43.85,102.69,34.33,104.77,29.15,108.92Z" style="fill:#e0e0e0"></path></g></g><g id="freepik--speech-bubble--inject-40"><g id="freepik--speech-bubble--inject-40"><path d="M426.9,154.55l12.38-10.71s21.61,1.73,31-6.44c8.29-7.18,7-20.87-3.09-28.42-11.66-8.74-43.58-7.5-53-.14s-9.84,19.91-2,28.34c4.49,4.83,15.33,6.1,15.33,6.1Z" style="fill:#fafafa"></path><path d="M427.05,143.72c-2.17-.31-11.09-1.82-15.17-6.2a20,20,0,0,1-5.58-15.29,19.39,19.39,0,0,1,7.63-13.78c9.69-7.59,41.73-8.76,53.59.13a21,21,0,0,1,8.72,16,16.34,16.34,0,0,1-5.6,13.22c-9.09,7.87-28.79,6.74-31.19,6.57l-13.12,11.36Zm12.27-.38c.22,0,21.51,1.62,30.66-6.31a15.36,15.36,0,0,0,5.26-12.44,20,20,0,0,0-8.32-15.21c-11.33-8.5-43.14-7.38-52.37-.14a18.35,18.35,0,0,0-7.25,13.07,19,19,0,0,0,5.31,14.53c4.32,4.63,14.92,5.93,15,5.95l.47.05-.64,10.56,11.64-10.08Z" style="fill:#e0e0e0"></path></g></g></g><g id="freepik--speech-bubbles-1--inject-40"><g id="freepik--speech-bubble--inject-40"><path id="freepik--speech-bubble--inject-40" d="M395.68,88.83l9.69-8.53a145.07,145.07,0,0,0,21.11.79c18.89-.51,29.25-7.45,27.3-18.82C451.5,49,439,44.5,416.49,44.65c-13.28.09-22.67,4-26.88,9.75-4.7,6.4-3.94,17.54,7.19,22.9Z" style="fill:#009999"></path><path id="freepik--speech-bubble--inject-40" d="M395.68,88.83l9.69-8.53a145.07,145.07,0,0,0,21.11.79c18.89-.51,29.25-7.45,27.3-18.82C451.5,49,439,44.5,416.49,44.65c-13.28.09-22.67,4-26.88,9.75-4.7,6.4-3.94,17.54,7.19,22.9Z" style="fill:#fff;opacity:0.6000000000000001"></path></g><g id="freepik--speech-bubble--inject-40"><path id="freepik--speech-bubble--inject-40" d="M261.18,73.91l-8.57-8a132.77,132.77,0,0,1-19.24.1c-17.17-1-26.4-7.65-24.3-17.93,2.47-12.06,14-15.75,34.47-15,12.08.47,20.52,4.34,24.17,9.67,4.1,6,3.08,16.08-7.21,20.63Z" style="fill:#009999"></path><path id="freepik--speech-bubble--inject-40" d="M261.18,73.91l-8.57-8a132.77,132.77,0,0,1-19.24.1c-17.17-1-26.4-7.65-24.3-17.93,2.47-12.06,14-15.75,34.47-15,12.08.47,20.52,4.34,24.17,9.67,4.1,6,3.08,16.08-7.21,20.63Z" style="fill:#fff;opacity:0.6000000000000001"></path></g><g id="freepik--speech-bubble--inject-40"><path id="freepik--speech-bubble--inject-40" d="M120.4,83.19l-9.69-8.54a145.07,145.07,0,0,1-21.11.79C70.71,74.93,60.35,68,62.3,56.63,64.58,43.31,77.1,38.85,99.59,39c13.28.09,22.68,4,26.88,9.75,4.7,6.4,3.94,17.55-7.19,22.91Z" style="fill:#009999"></path><path id="freepik--speech-bubble--inject-40" d="M120.4,83.19l-9.69-8.54a145.07,145.07,0,0,1-21.11.79C70.71,74.93,60.35,68,62.3,56.63,64.58,43.31,77.1,38.85,99.59,39c13.28.09,22.68,4,26.88,9.75,4.7,6.4,3.94,17.55-7.19,22.91Z" style="fill:#fff;opacity:0.6000000000000001"></path></g></g><g id="freepik--character-3--inject-40"><g id="freepik--Character--inject-40"><g id="freepik--Top--inject-40"><path d="M317,79.68c-1.33-5.32-4.5-4.59-5.52-7.57s-.69-2.5-3.14-5.08a27.2,27.2,0,0,1-3.29-3.79,19.16,19.16,0,0,1-1.95-4.61c-1.42-.9-2.51,2.09-2.15,4.21s.86,3.89-.35,6.76-4.21,10.34-4.21,10.34,3.06,2.91,4.63,4.16,3.3,4.43,4.09,11.13c1.19,10,2.08,17.42,3.23,28.05l17.4-11C321.66,95.69,318.61,86.12,317,79.68Z" style="fill:#ffa8a7"></path><path d="M304.16,76.76a7.33,7.33,0,0,1,3.48,4.49c-.37-2.6-.88-3.45-3.05-5.27Z" style="fill:#f28f8f"></path><path d="M302.14,85.31a11,11,0,0,1,1.07,1.93,3.53,3.53,0,0,0,1.86,0c1.31-.34,2.63-2.26,2.63-2.26a8.86,8.86,0,0,1-2.38,1.09A3.34,3.34,0,0,1,302.14,85.31Z" style="fill:#f28f8f"></path><path d="M294.38,53.44c-.35,1.31.18,2.38,1,4.28a5.66,5.66,0,0,1-.23,4.64c-.45,1.06-3.34,6.84-4.32,8A11.56,11.56,0,0,1,289.08,72a4.14,4.14,0,0,0,.88,2.49c1,1.21,2.65,3,2.65,3s5.18-7.48,5.7-12.45S297.67,57.56,294.38,53.44Z" style="fill:#f28f8f"></path><g id="freepik--Beer--inject-40"><g id="freepik--Beers--inject-40"><g id="freepik--beer-bottle--inject-40"><path d="M286.69,84.49c.06-.16,8.48-24.32,9.07-26s3.28-3.35,4.29-4.13c1.36-1,2-2.92,3-5.14,1.45-3.2,3.75-5.71,4.81-8a1,1,0,0,1,0-1c.31-.5,1-.5,1-.63a5.17,5.17,0,0,1,4.85,1.69c-.05.13.49.55.41,1.14a.71.71,0,0,1,0,.2,1,1,0,0,1-.56.56c-.61,2.47-.36,5.87-1.22,9.28-.6,2.36-1.27,4.23-.85,5.89.31,1.24,1.39,4.19.79,5.9l-9.07,26h0c-.36,1-1.53,1.77-3.41,2a16,16,0,0,1-11.68-4.07C286.78,86.83,286.33,85.52,286.69,84.49Z" style="fill:#37474f"></path><path d="M308.86,41.07c-.45-.46-.61-.91-.48-1.26v0c.25-.1.48-.14.51-.21a5.17,5.17,0,0,1,4.85,1.69c0,.07.13.25.26.49v0c-.12.35-.52.61-1.16.68A5.49,5.49,0,0,1,308.86,41.07Z" style="fill:#263238"></path><path d="M307.39,42.09c.17-.31.33-.61.47-.92a2.41,2.41,0,0,0,.46.62,6.13,6.13,0,0,0,4.49,1.57,2.16,2.16,0,0,0,.75-.2c-.08.32-.14.66-.2,1l-.06,0a2.23,2.23,0,0,1-.88.26,6.12,6.12,0,0,1-4.49-1.56A2.05,2.05,0,0,1,307.39,42.09Z" style="fill:#263238"></path><path d="M308.51,39.43a2.88,2.88,0,0,1,1-1.65l0,0,.11,0a1.06,1.06,0,0,1,.25-.09h0l.3-.05a5,5,0,0,1,3.64,1.27,1.43,1.43,0,0,1,.2.23h0s0,0,0,0l.14.22a.61.61,0,0,1,.05.12l0,0a2.84,2.84,0,0,1-.22,2c-.12.35-.51.61-1.16.68a5.42,5.42,0,0,1-4-1.39C308.54,40.22,308.39,39.78,308.51,39.43Z" style="fill:#37474f"></path><path d="M313.3,40.58c1.18-.13,1.45-.93.62-1.76a5,5,0,0,0-3.64-1.27c-1.17.13-1.45.93-.62,1.76A5,5,0,0,0,313.3,40.58Z" style="fill:#455a64"></path><path d="M312.87,40.15c.84-.1,1-.67.44-1.26a3.55,3.55,0,0,0-2.59-.91c-.84.1-1,.66-.44,1.26A3.56,3.56,0,0,0,312.87,40.15Z" style="fill:#263238"></path><path d="M296.7,58.79l-9,25.77c-.28.77.15,1.78,1.2,2.83a14.76,14.76,0,0,0,10.74,3.75c1.47-.18,2.43-.7,2.7-1.48l9-25.76c.41-1.19-.22-3.37-.6-4.68-.08-.3-.16-.58-.21-.79-.38-1.51-.15-2.64.44-4.75.14-.52.28-1,.4-1.5a.31.31,0,0,0,0-.08c0-.1.05-.2.07-.29a1.94,1.94,0,0,0-.7-1.41,7.17,7.17,0,0,0-5.23-1.82,1.93,1.93,0,0,0-1.43.69c0,.07-.07.15-.1.23l-.05.09c-.2.45-.41.94-.62,1.43-.85,2-1.36,3-2.6,4l-.67.49C299,56.28,297.12,57.6,296.7,58.79Z" style="fill:#009999"></path><path d="M296.7,58.79l-9,25.77c-.28.77.15,1.78,1.2,2.83a14.76,14.76,0,0,0,10.74,3.75c1.47-.18,2.43-.7,2.7-1.48l9-25.76c.41-1.19-.22-3.37-.6-4.68-.08-.3-.16-.58-.21-.79-.38-1.51-.15-2.64.44-4.75.14-.52.28-1,.4-1.5a.31.31,0,0,0,0-.08c0-.1.05-.2.07-.29a1.94,1.94,0,0,0-.7-1.41,7.17,7.17,0,0,0-5.23-1.82,1.93,1.93,0,0,0-1.43.69c0,.07-.07.15-.1.23l-.05.09c-.2.45-.41.94-.62,1.43-.85,2-1.36,3-2.6,4l-.67.49C299,56.28,297.12,57.6,296.7,58.79Z" style="opacity:0.2"></path><path d="M299.37,90.94c3.26-.38,4-2.58,1.71-4.91A13.87,13.87,0,0,0,291,82.51c-3.27.38-4,2.58-1.72,4.91A13.81,13.81,0,0,0,299.37,90.94Z" style="opacity:0.1"></path><path d="M304,49.5a1.67,1.67,0,0,0,.64,1.62A7.16,7.16,0,0,0,309.89,53c.82-.1,1.33-.41,1.51-.85a1,1,0,0,0,.07-.29,1.94,1.94,0,0,0-.7-1.41,7.17,7.17,0,0,0-5.23-1.82,1.93,1.93,0,0,0-1.43.69A.94.94,0,0,0,304,49.5Z" style="fill:#009999"></path><path d="M304,49.5a1.67,1.67,0,0,0,.64,1.62A7.16,7.16,0,0,0,309.89,53c.82-.1,1.33-.41,1.51-.85a1,1,0,0,0,.07-.29,1.94,1.94,0,0,0-.7-1.41,7.17,7.17,0,0,0-5.23-1.82,1.93,1.93,0,0,0-1.43.69A.94.94,0,0,0,304,49.5Z" style="opacity:0.4"></path><path d="M292.16,90.84a16,16,0,0,0,2.38.33,8.66,8.66,0,0,0,3.7-.45A2.78,2.78,0,0,0,300,89.13s8.48-24.32,9.08-26,.06-4.41-.11-5.66c-.29-2.09.88-3.81,1.47-6.16.76-3,1.09-5.64,1.58-7.91a.57.57,0,0,0,.2-.9,1.49,1.49,0,0,0-.49-.46,1,1,0,0,0,.51-1.47c2.16,0,2.59-1.41.4-2.57a4.07,4.07,0,0,1,1.3.85,1.43,1.43,0,0,1,.2.23h0s0,0,0,0l.14.22a.61.61,0,0,1,.05.12l0,0a2.84,2.84,0,0,1-.22,2,.65.65,0,0,1-.17.27,1.13,1.13,0,0,1,.2.74.71.71,0,0,1,0,.2,1,1,0,0,1-.56.56c-.61,2.47-.36,5.87-1.22,9.28-.6,2.36-1.27,4.23-.85,5.89.31,1.24,1.39,4.19.79,5.9l-9.07,26h0c-.36,1-1.53,1.77-3.41,2A15.51,15.51,0,0,1,292.16,90.84Z" style="opacity:0.2"></path><path d="M308.05,40.14c.11-.11.06.68.69,1.33a7,7,0,0,0,3.09,1.74,7.31,7.31,0,0,1-3.08-1.33C307.67,40.91,307.82,40.36,308.05,40.14Z" style="fill:#fafafa;opacity:0.1"></path><path d="M309.92,37.7a1.68,1.68,0,0,0-.93,1,2.2,2.2,0,0,0-.35,1.16c0,.3.67,1.25,2.42,1.89-1.11-.83-1.88-1.45-2-2.09A2.1,2.1,0,0,1,309.92,37.7Z" style="fill:#fafafa;opacity:0.1"></path><path d="M297.33,59l-9.08,26c-.2.57.18,1.4,1.05,2.27A12.66,12.66,0,0,0,294,90.07c-5-2.35-4-4.54-3.17-6.92l7.22-20.7c1.71-4.92,3.65-4.68,5.29-6.36s1.93-5.3,3.49-8.16c1.05-1.91,1.8-2.93,2.42-4.09a7.55,7.55,0,0,1-.74-.43c-.38.63-.81,1.27-1.26,1.93a29.37,29.37,0,0,0-2.69,4.51l-.47,1.06c-.81,1.87-1.51,3.48-2.9,4.55l-.69.5C299.53,56.66,297.69,58,297.33,59Z" style="fill:#fafafa;opacity:0.2"></path></g></g></g><path d="M295.46,59.34l.57.3.09,0a9.82,9.82,0,0,1,2.53,1.69c.27.29.5.64.78.93a4,4,0,0,1,.8,1,16.11,16.11,0,0,1,1,3.26c.18.71.73,1.75,0,2.3a4.33,4.33,0,0,1-2,.49c-.05.57.23,1.09.23,1.65a2.82,2.82,0,0,1-.39,1.36,2.36,2.36,0,0,1-3.07.28,2.61,2.61,0,0,1-1.43,2.13,2.43,2.43,0,0,1-1.91,0,8.24,8.24,0,0,1-2.12-1.14Z" style="opacity:0.2"></path><path d="M297.15,56.59a22.11,22.11,0,0,1,2.35-1.85c.27,1.47.33,3.14-1.29,3.38a1,1,0,0,1-.76-.19A6.08,6.08,0,0,0,297.15,56.59Z" style="opacity:0.2"></path><path d="M294.54,53c-.61,1.36,0,2.13.59,3.21s2.28,2.47,3.16,1.86.94-2.15.26-3.91-1.26-2.51-1.87-2.53A2.85,2.85,0,0,0,294.54,53Z" style="fill:#ffa8a7"></path><path d="M298.31,70.6a1.52,1.52,0,0,1-1.57,1.12,2.58,2.58,0,0,1-1.46-.39c0,1-.11,2-1.09,2.42-1.79.84-3.35-2.36-5.06-1.24a9.63,9.63,0,0,1-.2-1.4,3.2,3.2,0,0,1,.08-1,5,5,0,0,1,.27-.77l.15-.31a6.52,6.52,0,0,1,.79-1,1.66,1.66,0,0,0,.15-1.16,2.66,2.66,0,0,1,.28-1.47c.48-.89,1.53-1.44,1.46-2.52a13.69,13.69,0,0,0-.39-1.37,3.83,3.83,0,0,1,.8-3.06c.62-.68,2.21,0,2.91.31a18.49,18.49,0,0,1,2,1.1,4.89,4.89,0,0,1,2,1.64,16.42,16.42,0,0,1,1.23,4c.17.62.3,1.19-.14,1.66a2,2,0,0,1-1.53.7,2.94,2.94,0,0,1-1.2-.36C298.13,68.75,298.62,69.58,298.31,70.6Z" style="fill:#ffa8a7"></path><path d="M309.62,61.53s.05.1.07.16c.38,1,.49,2.08.84,3.09a20.72,20.72,0,0,0,2.1,3.8,26.08,26.08,0,0,1,3.52,7.72c.08.33.74,3.23.82,3.23L307.15,79a16.37,16.37,0,0,0,.21-5.92c-.11-1.06-.47-2.59-.6-3.34a19.36,19.36,0,0,1-.41-4.95,5,5,0,0,1,1.28-3.05C308.17,61.2,309.17,60.7,309.62,61.53Z" style="fill:#ffa8a7"></path><path d="M353.64,147.09c-3.37-1.48-7.76-6.55-12.13-11.45-4.19-4.68-12.46-15.22-12.46-15.22l-5.45-16.91s-.29,4.74-7.32,7.84a16.68,16.68,0,0,1-9.62,1.1s.45,5,1.3,12.51c.69,6,1.57,7,8.41,16.54,5.43,7.61,17.79,22.18,18.87,27.73C351.16,163.87,353.64,147.09,353.64,147.09Z" style="fill:#e6e6e6"></path><path d="M393.2,182.35s-5-1.72-7.48-11.82c-1.13-4.58,1.49-10.3,2.64-17.54l-12.23-4s-4.57-.7-14.56-1.33l-8-.62s-12.77,11-18.41,20.43c-2.28,3.83-5.17,11.63.6,21.19.31,6.95,1.6,18.2,1.6,18.2s5.47,8.39,23.71,8.32c26.17-.11,27.05-8.95,27.05-8.95C387.71,198.8,391.31,189.78,393.2,182.35Z" style="fill:#fafafa"></path><path d="M353.85,148l7.66.59c9.14.58,13.77,1.23,14.4,1.32l11.37,3.7c-.38,2.16-.88,4.17-1.36,6.12-1,4.17-1.92,7.77-1.13,11,2,8.17,5.67,11.15,7.29,12.1-.45,1.7-1,3.47-1.53,5.32-1.81,6.08-3.68,12.37-3.43,18-.16.69-2.47,8-26.09,8.05h-.23c-15.84,0-21.68-6.59-22.56-7.72-.19-1.7-1.28-11.62-1.57-17.88v-.25l-.13-.2C331,179,333.79,171.6,335.94,168c5-8.42,16-18.23,17.91-19.94m-.32-1s-12.77,11-18.41,20.43c-2.28,3.83-5.17,11.63.6,21.19.31,6.95,1.6,18.2,1.6,18.2s5.42,8.32,23.48,8.32H361c26.17-.11,27.05-8.95,27.05-8.95-.37-7.45,3.23-16.47,5.12-23.9,0,0-5-1.72-7.48-11.82-1.13-4.58,1.49-10.3,2.64-17.54l-12.23-4s-4.57-.7-14.56-1.33l-8-.62Z" style="fill:#e0e0e0"></path><path d="M378.32,161c-.15.33-.53.94-.71,1.39-2.62.59-5.46.91-8.16,1.3l-.57.08.21.56c.69,1.69.69,4.14-1.33,4.82-5.8,2-15,3.4-18,7.7,2.83-3.22,8.29-3.75,12.25-5,2-.66,4-1.15,6.13-1.84,2.3-.74,2.73-3.4,2-5.47,1.5-.23,3-.46,4.49-.71a18.5,18.5,0,0,0,3.43-.78c.18-.07.22-.41.21-.35,1.69-3.5,3.48-7,5.15-10.52C381.66,155,380,158,378.32,161Zm-.8,1.65c0,.07,0-.08.07-.2A1,1,0,0,0,377.52,162.6Zm-29.18-2.32a4.71,4.71,0,0,1,4.06-1.81h.36c.45-1.7.81-3.42,1.21-5.12s.69-3.22,1-4.85c-.54,1.56-1.06,3.13-1.54,4.7s-.9,2.94-1.31,4.41c-2.82-.05-5.59,1.85-5.05,4.91.38,4.29,2.1,8.29,2.4,12.59.29-3-.7-7.2-1.17-10.17C348.13,163.48,347.61,161.54,348.34,160.28Z" style="fill:#e0e0e0"></path><path d="M351.89,187.77s4.47,5.87,14.44,4.46,12.09-8.86,12.09-8.86.36,9.65-11.55,11.3C355.14,196.29,351.89,187.77,351.89,187.77Z" style="fill:#e6e6e6"></path><g id="freepik--Head--inject-40"><path d="M372.52,146a3.2,3.2,0,0,1,1,.25,29.31,29.31,0,0,0,7.69,1.87,9.66,9.66,0,0,0,6-1.5A5.89,5.89,0,0,1,386,149a9.52,9.52,0,0,0,6.86-2.88c1.56-1.58,3.12-4.22,3.15-6.51s-1.29-4.78-1.35-7.22c-.08-3.59,1-7,1.25-10.59a22.74,22.74,0,0,0-1.49-10.65c-4.24-9.71-16.39-16.45-26.76-16.84a41.92,41.92,0,0,0-4.48.16,31.86,31.86,0,0,0-5.68.81,18.88,18.88,0,0,0-11.41,9.1,11.84,11.84,0,0,0-1.48,4,12.81,12.81,0,0,0,1.55,7.44,7,7,0,0,1,.44-2.44,4.76,4.76,0,0,0,1.58,3.38c1.4,1.24,3.35,2.14,1.74,4.18a19,19,0,0,1-2.25,2.14c-2.55,2.32-4.39,5.68-4,9.1a12.57,12.57,0,0,0,2.68,5.92,4.11,4.11,0,0,1,.7-2.93c-.35,3.82,2.48,5.83,5.28,7.63a15.46,15.46,0,0,0,10.28,2.33,2.48,2.48,0,0,1,.77,0,3,3,0,0,1,1.05.51,7.87,7.87,0,0,0,7.12.62,3.49,3.49,0,0,1,.71-.24Z" style="fill:#263238"></path><path d="M387.19,122.85c-2.88-1.38-4.7.19-6.53,2a2.44,2.44,0,0,1-2.69.69c-1-.51-.64-1.08-.83-1.94-.43-1.9-1.35-2.43-3-3.17a17.47,17.47,0,0,1-9.1-10,12.83,12.83,0,0,0,1.1,5.28A20.79,20.79,0,0,1,359,104.11a20,20,0,0,0-5.6,5.31,16.2,16.2,0,0,0-2.88,7.3c-.17,1-.54,2.82-1,6.4-1.67,12,1.84,16.54,3.72,17.94s4.37,2.06,8.44,2.31l-.56,4.65s-6.92,9.31-7.68,19.43c7.4-3.79,16.08-10.25,25-17.15l2-15.81c1.09,2.18,4.77,1.95,6.78-.27C390.38,130.71,391.46,124.89,387.19,122.85Z" style="fill:#ffa8a7"></path><path d="M353,115l4.05-1.42a2.06,2.06,0,0,0-2.66-1.36A2.26,2.26,0,0,0,353,115Z" style="fill:#263238"></path><path d="M368.54,115.58l3.53,2.44a2,2,0,0,0-.47-3A2.24,2.24,0,0,0,368.54,115.58Z" style="fill:#263238"></path><circle cx="367.07" cy="121.04" r="1.78" style="fill:#263238"></circle><circle cx="355.22" cy="119.09" r="1.78" style="fill:#263238"></circle><path d="M365,131.26l-6.21,1a3.16,3.16,0,0,0,3.91,2.54A3,3,0,0,0,365,131.26Z" style="fill:#b16668"></path><path d="M360.93,134.71a3.3,3.3,0,0,1,3.72-2.4,2.63,2.63,0,0,1,.3.09,2.78,2.78,0,0,1-2.28,2.4A3.62,3.62,0,0,1,360.93,134.71Z" style="fill:#f28f8f"></path><polygon points="361.88 118.02 359.93 129.02 354.07 126.46 361.88 118.02" style="fill:#f28f8f"></polygon><path d="M361.68,143.37c4,0,12.47-.92,16.15-7.24,0,0,.88,4.33-5.63,7.78-3.55,1.89-10.88,2.5-10.88,2.5Z" style="fill:#f28f8f"></path></g><g id="freepik--Arm--inject-40"><path d="M455.2,253.77a5,5,0,0,1-3-1,8,8,0,0,1-1-.88.43.43,0,0,0-.19-.13.42.42,0,0,0-.27,0,5.09,5.09,0,0,1-3.94-.51l-4.7-2.3a12.06,12.06,0,0,1-2.5-1.47,4.19,4.19,0,0,1-1.54-2.4,2.18,2.18,0,0,1,.28-1.62,2.36,2.36,0,0,1,.82-.68,6.15,6.15,0,0,1,3.21-.49,16.62,16.62,0,0,1,8.78,3.17c.95.69,1.85,1.45,2.75,2.2a6.56,6.56,0,0,1,1.42,2.79,9.71,9.71,0,0,0,.77,1.63c.19.32.7.65.6,1.07s-.41.42-.7.47A4.78,4.78,0,0,1,455.2,253.77Z" style="fill:#f28f8f"></path><path d="M440.6,250.63c-2-1.2-4.19-1.47-6.42-2.1-1.53-.43-3-1.08-4.48-1.5a18.12,18.12,0,0,1-4.51-1.5,8,8,0,0,1-3-3.06,29.93,29.93,0,0,0-2.92-4.26c-2.85-3.4-12-13.52-18.53-20.72-4.47-5-5.75-7.12-6.88-10.66-5.48-17.19-9.49-28.13-9.49-28.13-3.31-9,.86-21.4,3.45-25.53,11.47,4.84,12.44,5.07,17.46,21.29,2.83,9.16,3.89,14.38,8.34,29.25,10,15.95,17.64,29.7,18.8,30.74,1.84,1.65,6.91,2.59,11.18,4.32,2.23.91,4.44,1.75,6.75,2.47a5.36,5.36,0,0,1,3.44,2.26l3.37,4.17c1,1.18,2.19,2.05,3.21,3.19a1.28,1.28,0,0,1,.31.49c.52,1.9-3.07,1.33-3.86,1a14.1,14.1,0,0,1-2.78-1.62,24.67,24.67,0,0,1-3.54-3.08,7.07,7.07,0,0,0-4.22-2.24l-3.55-.41c-.21,0-.51,0-.48.25a.36.36,0,0,0,.12.18,45.61,45.61,0,0,0,5.45,4.45,1.93,1.93,0,0,1,.77.78c.28.69-.33,1.44-1,1.77C445.09,253.69,442.66,251.85,440.6,250.63Z" style="fill:#ffa8a7"></path><path d="M386.59,152.45c7.54,2.21,11.66,4.6,14,8.41,3,4.89,3.56,8.17,6,16.83,2.29,8.07,7.34,25.56,7.34,25.56l6.52,11.63a11.39,11.39,0,0,0-7.4,3,18.86,18.86,0,0,0-5.13,7.61s-9-8.9-10.83-11.27a20.14,20.14,0,0,1-4.18-7.37c-1.44-4.07-9.51-28.57-9.51-28.57S379.43,163.72,386.59,152.45Z" style="fill:#e6e6e6"></path></g></g><g id="freepik--Bottom--inject-40"><path d="M402.24,366.06s4.65.76,7.31,4.14,8.57,13.53,9.74,14.66a8.45,8.45,0,0,1-2.64,2.77l-3.16-3.57c-.78-.65-2.07-2.26-2-.16s.29,4.06.6,8.13c.19,2.48,1.12,7.35-3.14,12.11-4,4.44-8.76,7.47-11.72,7.88-1.77.25-5.75-.11-5.56-3.64.11-1.87,2.34-8.95,2.64-12.36S402.24,366.06,402.24,366.06Z" style="fill:#263238"></path><path d="M403,367c-.6-.75-2.47-3.92-3.37-5.4s-4.67-9.25-9.36-21.2c-6-15.4-16.07-26.76-19.19-32.54a120.86,120.86,0,0,1-8.74-19.68l-12.5,8.33-16.46-.31c-.16,2.45.84,5.7,2.67,9.49h0l.05.1.53,1.05c3.66,7.2,9.92,15.92,16.9,24.72l.17.21.24.32c6.73,8.51,14.12,17.17,20.58,24.67v-.18c6.94,8,12.55,14.55,14.55,17.83,5.84,9.57,5.18,18.94,5.21,24,0,3.2,2.52,3.8,5.86,1a20.46,20.46,0,0,0,7.27-15.35C407.35,371.88,406.41,371.4,403,367Z" style="fill:#ffa8a7"></path><path d="M337.32,206.88c-1.08,9.93-5.66,21.86-7.41,45.33-1.64,22-2.31,33.49-.41,44.34.67,3.86,2.77,8.34,6.67,13.95,12.21,17.58,36,45.07,36,45.07s5.17-.29,11.26-5.67a18.3,18.3,0,0,0,5.89-12.58s-.76-4.09-10.89-20.33-12-34.15-12-34.15l3.79-70.64Q348,215.07,337.32,206.88Z" style="fill:#455a64"></path><path d="M383.43,349.9a18.3,18.3,0,0,0,5.89-12.58s-.76-4.09-10.89-20.33-12-34.15-12-34.15l2.9-54.08c-11.68-1.42-27.88-.66-27.88-.66,0,7.73,1.94,17.22,12.91,22.56,0,0-.67,38-.54,49.09.1,8.47,3.24,29.93,4.72,39.63,7.57,9.19,13.62,16.19,13.62,16.19S377.34,355.28,383.43,349.9Z" style="fill:#37474f"></path><path d="M382,388.9a14.29,14.29,0,0,1,3.9,8c.4,4.62-.16,17.25.21,18.95a7.93,7.93,0,0,1-3.72,1l-.71-5.08c-.31-1-.2-1.87-1.32.05s-2,4.06-3.78,6.85c-1.38,2.22-3.28,7.42-9.44,9.23-5.75,1.69-12.44,1.09-15.16-.27-1.62-.81-4.51-2.08-2.43-5.15,1.1-1.63,7.38-8.23,9.49-11.14S382,388.9,382,388.9Z" style="fill:#263238"></path><path d="M366.34,388.75c.29-12.07-11.08-67.28-8-93.22l32.41-.38a139.69,139.69,0,0,0-3.35,22.91c-.53,7.05,1.73,23.19-1.56,40.64-2.56,13.56-3.62,22.79-3.66,24.65s-.2,5.82-.11,6.85c.52,6-.39,9.36-6.94,18.81-1.27,1.83-4.31,7.73-13.1,8.87-4.31.57-6.08-1.44-4.36-4.34C360.4,408.9,366.05,400.82,366.34,388.75Z" style="fill:#ffa8a7"></path><path d="M387.39,318.06c-.07,2.74.1,5.47.24,8.21s.26,5.47.34,8.21a131.3,131.3,0,0,1-.6,16.47c-.28,2.73-.73,5.45-1.23,8.14l-1.49,8.06q-.73,4-1.36,8.07c-.44,2.7-.87,5.4-1.12,8.13A156.89,156.89,0,0,1,384,367c.79-5.42,2-10.75,2.53-16.17.32-2.71.48-5.44.62-8.16s.13-5.46.16-8.2-.05-5.47-.1-8.21S387.13,320.79,387.39,318.06Z" style="fill:#f28f8f"></path><path d="M337.32,206.88s-1.85,12.19,2.58,23.67c3.84,10,10.75,15.4,17.9,17.5,0,0-.77,45.44-1.18,51.78s1.85,29.15,3.7,44.16,2.43,20.14,2.43,20.14,3.23,3.28,12,3.13,11.37-4,11.37-4S391,345.67,390.75,332c-.14-7.84-1.94-11.66-.77-19.48s10.63-42.76,11.87-59.2-2-30.74-13.84-47.08C376.15,214.88,348.65,214.5,337.32,206.88Z" style="fill:#455a64"></path><path d="M383.12,209c6.42,8.49,15.86,26.13,10.49,52.1-1.52,7.38-3.05,14.51-4.53,21.4-3.46,16.15-6.2,28.9-6.46,33.74a40.43,40.43,0,0,0,.67,8.12,69.88,69.88,0,0,1,.67,19.13c-.81,8.28-2.1,17-3,22.9.37-.11.71-.23,1-.35.94-5.9,2.18-14.38,3-22.45a71.07,71.07,0,0,0-.68-19.37,38.86,38.86,0,0,1-.66-7.93c.26-4.76,3-17.48,6.44-33.58,1.48-6.9,3-14,4.54-21.42,5.39-26.16-4-44-10.54-52.69C383.73,208.7,383.43,208.83,383.12,209Z" style="fill:#37474f"></path><path d="M337,204.14s8,5.43,24.25,5.25c18.3-.19,26.86-6.1,26.86-6.1a12.51,12.51,0,0,0,1.88,5.82s-10.36,6.52-28.55,6.38-24.52-5.61-24.52-5.61A30.15,30.15,0,0,0,337,204.14Z" style="fill:#37474f"></path></g></g></g><g id="freepik--character-2--inject-40"><g id="freepik--character--inject-40"><g id="freepik--bottom--inject-40"><g id="freepik--bottom--inject-40"><polygon points="261.01 382.24 264.54 380.33 260.96 379.47 261.01 382.24" style="fill:#263238"></polygon><path d="M296.92,387.59s-43.14-17.7-43.56-14.8a4.24,4.24,0,0,0,.09,1.72,1.58,1.58,0,0,1-.12-.15l1,5.34a12.6,12.6,0,0,0,6.7,2.54c0-.26,0-1.86-.05-2.77a20.88,20.88,0,0,1,3.81,1.86c2.79,1.71,4.65,4.81,7.68,8.38,2.2,2.6,6,3.72,11.58,4.31,6,.63,11.24-.72,12.66-2.39C297.83,390.3,297.15,388,296.92,387.59Z" style="fill:#263238"></path><path d="M295.71,386.64c-.42-.42-2-2-4.11-3.79a78,78,0,0,0-6.32-5,23.37,23.37,0,0,1-3.13-2.42c-.77-.77-1.51-1.57-2.2-2.41a45.58,45.58,0,0,1-4.94-7.57,12.16,12.16,0,0,1-1.52-6.53,153.31,153.31,0,0,1,1.14-19l-20.44.33c.71,3.23,1.13,8.74,1.57,12.42.68,5.6.88,6.85-1.09,12.53-.58,1.67-1.48,3.29-1.5,5.06,0,2.88,2.31,5.27,4.87,6.59,2.12,1.08,4.53,1.5,6.59,2.66a21.16,21.16,0,0,1,5.48,5c1.49,1.78,2.72,3.91,4.77,5.13a18.6,18.6,0,0,0,7,2.15,37.37,37.37,0,0,0,9.3.13C295.58,391.39,298.8,389.66,295.71,386.64Z" style="fill:#b16668"></path><path d="M293.16,383.59c-1.88-1.48-4.56-3.6-7.78-6a7.93,7.93,0,0,0-6.55.85c-6.19,3.56-7.09,8.33-7.09,8.33a9.14,9.14,0,0,0,5.32,4.34c7.4,2.93,20.39,1.43,20.4-1.95C297.46,387,295.45,385.39,293.16,383.59ZM255,363.91s-.39,1.13-1.42,3.34a6.13,6.13,0,0,0,.3,6.5,9.68,9.68,0,0,0,6.55,4.13C262.24,371.4,257.61,365.2,255,363.91Z" style="fill:#37474f"></path><path d="M222.08,371.56c1.2,1.94-.36,9.22-.09,14.4.25,4.71,1.51,12.93.06,17.58-1.71,5.52-5.2,11.92-11.68,6.75-4-3.2-6.33-7.34-6.87-14.13-.38-4.71,1.5-11.23,3.11-17,1.89-6.75,2.61-10.36,2.61-10.36Z" style="fill:#263238"></path><path d="M208.77,336.81c-.47,11,.81,18.71.89,25.75a50.27,50.27,0,0,1-1,9.5c-.92,4.49-2.49,10.73-3.14,13.64-.92,4.07-1.62,6.63-.22,11.19a5.58,5.58,0,0,0,.46,1c2,3.76,6.95,6.6,8.55,6.14a2.77,2.77,0,0,0,2.81,1,4.56,4.56,0,0,0,.53-.13,4.08,4.08,0,0,0,.54-.22,5.44,5.44,0,0,0,2.65-3.45,9.1,9.1,0,0,0,.26-1c1.16-5.66.32-9.32.21-11.53-.13-2.56,0-5.81.25-9.93s1.2-17.07,2.64-23.26c1.06-4.32,2.39-9.74,3.78-15.52Z" style="fill:#b16668"></path><path d="M204.53,391c3.94-1.73,15.35-2,17.16,3.58.05,5.23.08,8.77-3.22,13.32-4.39,6.05-10.11-.36-12.31-4.43S204,393.81,204.53,391Z" style="fill:#37474f"></path><path d="M223.64,193.28c-5.55,10-10,18.36-11.49,44.68-1.63,29.71-1.39,41-1.53,44.6s-2.45,10.16-4.41,27.81.1,60.45.1,60.45,1.39,2.88,8.14,3.54c6.23.6,9.88-1.58,9.88-1.58s12-53.55,14.41-64.19c3.37-15,8.32-44.82,8.32-44.82l3,25s-2,9.73-.18,25.24,5.1,45.16,5.1,45.16a21.86,21.86,0,0,0,9.22,3.35,15.71,15.71,0,0,0,10.07-2.17s6-61.46,6.16-79S279.25,220,273.91,194Z" style="fill:#37474f"></path><path d="M252.05,226.68l-5,37.09,3,25-.69-25.4,4.35-31c4.24-1,13.91-6,16.61-13.22C263.79,225.93,252.05,226.68,252.05,226.68ZM232.4,206.8c.77-2.83,1.58-5.65,2.49-8.48a42.11,42.11,0,0,0-3.87,8,77.59,77.59,0,0,0-2.6,8.53c-.7,2.88-1.27,5.8-1.68,8.74a58.49,58.49,0,0,0-.65,8.88c.73-2.89,1.41-5.75,2.09-8.61s1.34-5.73,2-8.57S231.65,209.63,232.4,206.8Zm-4.24-2.16c1-1.73,2-3.46,2.84-5.28a32.4,32.4,0,0,0-4.05,4.48,42.92,42.92,0,0,0-3.3,5,38,38,0,0,0-2.52,5.5,23.69,23.69,0,0,0-1.41,5.88l2.74-5.29c.93-1.74,1.85-3.47,2.82-5.18S227.21,206.37,228.16,204.64Zm-4.34,112.72q-2.58,13.69-4.78,27.46,3.28-13.56,6.21-27.17c2-9.08,3.84-18.15,5.7-27.29s2.93-18.4,3.89-27.64,1.72-18.51,2.35-27.78c-1.35,9.2-2.57,18.41-3.79,27.61s-2.53,18.38-4.29,27.46S225.5,308.23,223.82,317.36Zm48.35-45.84c.15,4,.36,8.08.27,12.06s-.39,8.05-.62,12.08l-.7,12.11Q270.41,319.88,270,332q1.51-12,2.6-24.14c.72-8.07,1.4-16.11,1.73-24.26,0-8.18-.6-16.23-1.27-24.31s-1.6-16.12-2.79-24.13l1.34,24.23C271.79,263.45,272,267.48,272.17,271.52Z" style="fill:#263238"></path></g></g><g id="freepik--top--inject-40"><path d="M330.78,137.49c-.66.13-1.09.62-2.3,1.32a13,13,0,0,0,3.51-4.89,2.13,2.13,0,0,0,.08-1.06c-.08-.28-.44-1.06-.93-1.11,0,0,.52-.95,1-1.76.38-.66,1.13-2.24,0-2.51-.89-.22-1.93.44-3,1.42a3.12,3.12,0,0,0,.64-1.85c-.28-1.18-1.18-1.6-3.17.08s-6.88,6.16-11.42,7.42c-.82.23-2.39.9-3.22.54h0c-1.14-.5-.12-2.12.3-2.81a16.85,16.85,0,0,0,1.08-2.06,6.59,6.59,0,0,0,.67-2.49,2.94,2.94,0,0,0-.94-2.32c-.36-.3-.85-.48-1.17-.07-1.25,1.64-2.57,3.23-3.83,4.86a33.23,33.23,0,0,0-3.43,4.85c-1.05,2-1.64,4.54-3.19,7.34s-3.32,5.41-7.7,10.51c-2.41,2.81-6.37,7.84-6.37,7.84L273.2,142.87c-7.34-9.28-12.61-11.08-22.23-10.69l6.67,22.92s14,19.79,19.21,26.12,8.95,6.82,11.59,6h0c8.25-2.63,12.45-14.65,21.34-32.72a10.5,10.5,0,0,1,6.55-5.54c1.55-.43,3.25-1,4.25-1.38a28.08,28.08,0,0,0,4.42-2.13c2.32-1.4,2.39-1.21,5.35-4.7.36-.43,1.8-2.32,1.54-2.82A1,1,0,0,0,330.78,137.49Z" style="fill:#b16668"></path><path d="M328.48,138.81a24.77,24.77,0,0,1-3.17,2.09c-1.09.64-2.25,1.15-3.36,1.81a15,15,0,0,0,3.59-1.4A9.44,9.44,0,0,0,328.48,138.81Z" style="fill:#9a4a4d"></path><path d="M306.84,145.78a3,3,0,0,1,0-.74,4.79,4.79,0,0,1,.42-1.38,6.24,6.24,0,0,1,1.76-2.22,6.15,6.15,0,0,1,5.94-.95c.05,0,.14.2,0,.2-2,0-3.9.11-5.51,1.38a6.51,6.51,0,0,0-2.14,4.42c0,.16-.18.14-.23,0A2.3,2.3,0,0,1,306.84,145.78Z" style="fill:#9a4a4d"></path><path d="M318.93,136.53a42.56,42.56,0,0,0,5.21-3.53c1.59-1.19,3.1-2.5,4.62-3.78,0,0,.06,0,0,.05a25.1,25.1,0,0,1-4.72,4.37,35.49,35.49,0,0,1-5.12,2.93S318.92,136.54,318.93,136.53Z" style="fill:#9a4a4d"></path><path d="M319.7,140a43.72,43.72,0,0,0,5.21-3.53c.64-.48,1.26-1,1.88-1.48a21.72,21.72,0,0,0,1.78-1.53l.51-.52a5.6,5.6,0,0,1,.66-.63,2.64,2.64,0,0,1,.87-.4s.08,0,.07,0a3.39,3.39,0,0,0-1,.69,7.72,7.72,0,0,0-.53.61c-.15.19-.32.35-.48.52a20.13,20.13,0,0,1-1.62,1.58c-.7.62-1.44,1.21-2.21,1.77a35.49,35.49,0,0,1-5.12,2.93S319.69,140,319.7,140Z" style="fill:#9a4a4d"></path><path d="M250,131.79c10-.58,14.62.52,19.63,5.92,4.73,5.08,17.83,22.41,17.83,22.41l7.06-8.15s-.1,2.57,3.52,6.61a11.25,11.25,0,0,0,8.3,3.82,133.26,133.26,0,0,1-7.39,15c-3.76,6.21-7.82,11.05-13.26,10.31s-8.7-5.27-12.75-10.57-15.88-22.09-15.88-22.09Z" style="fill:#37474f"></path><path d="M281.34,176.64c0-5.69,2.36-13.08,6.12-16.52,0,0-.53-.71-1.41-1.86C280.38,163.83,280.39,171.64,281.34,176.64Z" style="fill:#263238"></path><g id="freepik--head--inject-40"><path d="M216.55,88.16c.82-5.8,7.38-6.07,9.12-5.87a8.28,8.28,0,0,0,6.71-2.85,8.3,8.3,0,0,1,8-2.42c4.67,1.21,3.59,3.16,7.54,4.48,3.52,1.17,6.12,0,9.33,3a9.11,9.11,0,0,1,2.41,7.63c2.4,1.47,5.64,10.29.75,20-2.52,5-5.55,7.32-9.33,11.46l-3.67,0c-1.21-3.11-4.33-2.52-7.2-3.22-1.82-.82-2.87-2.86-4.7-3.68s-4-.2-6-.54c-1.55-.27-3.13-1.19-4.74-.78-3.68,1.51-9.24-1.68-8.83-5.93.13-1.29.84-2.54.58-3.81-.32-1.67-2.1-2.59-3.06-4a4.44,4.44,0,0,1,.26-5.33C216.35,93.53,216.09,91.46,216.55,88.16Z" style="fill:#263238"></path><path d="M229.87,134.6a.84.84,0,0,1,.32-.42,4.11,4.11,0,0,1,1.92-.81c.92-.12,1-1.12,1.17-2.72l.14-2.5a11.09,11.09,0,0,1-8.16-2.57c-3.39-2.94-5.2-8.79-4.88-15.09.21-4.18,1.29-6.14,1.22-7.08-.36-5.61.08-6.6,1.38-9.5,2.34-4.62,8.25-6.31,10.8-1.36,7.3-5.7,15.39,1.78,15.09,10.42-1,7.14,1.22,7.49,2.61,7.53,2.05-4.45,6.66-4.38,8.6-1.51,1.75,2.6,1.71,6.6-1.67,10.26s-7,1.27-7,.55c0,0-.52,9.62-.6,11.54,0,.18,1.21.76,1.35.92a7.82,7.82,0,0,1,1.13,1.91,15.79,15.79,0,0,1,1.22,5.11,35.6,35.6,0,0,1,.1,5.93,40.39,40.39,0,0,1-15.52-2.33,17.75,17.75,0,0,1-3.69-1.73,19.15,19.15,0,0,1-2.65-2.19,10.67,10.67,0,0,1-2.65-3.36A1.47,1.47,0,0,1,229.87,134.6Z" style="fill:#b16668"></path><path d="M256.45,117.66a1.7,1.7,0,1,1-1.71-1.68A1.7,1.7,0,0,1,256.45,117.66Z" style="fill:#fff"></path><path d="M237.92,116l-5.44,1.46a2.77,2.77,0,0,0,3.4,2.09A2.94,2.94,0,0,0,237.92,116Z" style="fill:#9a4a4d"></path><path d="M237.53,117.25a3.12,3.12,0,0,0-3.22,2.28,2.78,2.78,0,0,0,1.57,0,2.9,2.9,0,0,0,2.06-2.25A3,3,0,0,0,237.53,117.25Z" style="fill:#f28f8f"></path><path d="M223.37,101.17l4.18-1.14A2.09,2.09,0,0,0,225,98.47,2.28,2.28,0,0,0,223.37,101.17Z" style="fill:#263238"></path><path d="M243,102.12l-4-1.76a2.1,2.1,0,0,1,2.82-1.18A2.31,2.31,0,0,1,243,102.12Z" style="fill:#263238"></path><path d="M228.33,105.5a1.81,1.81,0,0,1-1.72,1.85,1.7,1.7,0,0,1-1.82-1.65,1.82,1.82,0,0,1,1.72-1.85A1.7,1.7,0,0,1,228.33,105.5Z" style="fill:#263238"></path><path d="M241.17,105.72a1.86,1.86,0,0,1-1.75,1.89,1.75,1.75,0,0,1-1.86-1.69,1.85,1.85,0,0,1,1.75-1.89A1.74,1.74,0,0,1,241.17,105.72Z" style="fill:#263238"></path><path d="M233.42,128.15c6.9-.37,13.57-2,15.44-6.07a7,7,0,0,1-4.18,5.67,24.86,24.86,0,0,1-11.38,2.41Z" style="fill:#9a4a4d"></path><polygon points="227.03 110.68 233.25 113.29 234.6 101.46 227.03 110.68" style="fill:#9a4a4d"></polygon></g><g id="freepik--Chest--inject-40"><path d="M272.67,180.9a81.53,81.53,0,0,1,.07-10.9s4.49-4.66,4.49-10.68c0-6.3-2.76-10.61-9.36-16.86a78.5,78.5,0,0,0-12.44-9.76l-4.64-1.36s2.91,7.59,1,11.52c-8-1.24-16.53-6.36-19.11-9.75l-12.35,3.12s-5.25,11-3.14,20.15c1.14,4.93,3.41,13.29,5.25,19.93a27.28,27.28,0,0,1-1.76,19.27c-.27.55-.53,1.1-.8,1.64-2.48,5.13-5.77,14.58-5.77,14.58s14.46,6.47,38.2,3.59,25.7-7.07,25.7-7.07l-4.43-20.66A41.43,41.43,0,0,1,272.67,180.9Z" style="fill:#fff"></path><path d="M233.18,170.19a13.27,13.27,0,0,0,11.75,8.34,14,14,0,0,0,12.64-6.09s-1.43,9.67-12.9,8.41S233.18,170.19,233.18,170.19Z" style="fill:#e0e0e0"></path><path d="M233,132.49c-.64,2.94,7.21,18.46,10.59,27.17,3.61,9.29,2,17.12,1.62,34.43-.32,13.33-1,33.45-1,33.45s-25.23.6-33.41-10.35c1.81-6.69,7.69-22.35,9.2-26.63s.54-8-2.52-17.62-7.61-14.82-7.76-22,4.66-13.24,6.45-14.55Z" style="fill:#455a64"></path><path d="M269.74,165.47c1.84,17,4.33,54.28,4.33,54.28s1.83-.93,5.3-5c-1.06-7.71-4.9-38.18-4.32-41.71s8.63-11.82.55-22.91S255,131.63,255,131.63l-4.24-.29C250.8,131.48,267.89,148.47,269.74,165.47Z" style="fill:#455a64"></path><path d="M257.63,135.56c1.13.94,2.24,1.88,3.33,2.87,2.18,1.95,4.34,3.93,6.44,6,1,1,2.08,2.07,3.09,3.14.51.53,1,1.07,1.49,1.64a5.7,5.7,0,0,1,1.28,2,6.32,6.32,0,0,1,.23,2.35,14.07,14.07,0,0,1-.33,2.24,26.77,26.77,0,0,1-1.26,4,17.64,17.64,0,0,1,3.07,4.62,3.53,3.53,0,0,1,.21.76,4.21,4.21,0,0,1,0,.79c0,.5-.09,1-.14,1.45q-.19,1.41-.45,2.82c-.65,3.75-1.47,7.45-2.36,11.14.59-3.75,1.19-7.49,1.72-11.24.13-.94.24-1.87.34-2.81,0-.46.08-.93.08-1.38a2.66,2.66,0,0,0-.2-1.23,18.08,18.08,0,0,0-3.14-4.52l-.19-.22.11-.27a26.69,26.69,0,0,0,1.25-4.11,15.21,15.21,0,0,0,.29-2.09,5.28,5.28,0,0,0-.16-2,4.86,4.86,0,0,0-1.07-1.67c-.46-.55-.95-1.09-1.44-1.62-1-1.07-2-2.11-3-3.15-2.05-2.08-4.11-4.16-6.21-6.18s-4.19-4.09-6.42-6C255.38,133.69,256.5,134.62,257.63,135.56Z" style="fill:#37474f"></path><path d="M228.44,159.32l-.08-2.32-.17-4.64c-.18-6.19-.35-12.38-.37-18.58.5,6.18.87,12.38,1.22,18.57l.22,4.65.11,2.33,0,.57a1.56,1.56,0,0,0,.08.43,2.3,2.3,0,0,0,.5.82,10.81,10.81,0,0,0,3.77,2.23,30.21,30.21,0,0,0,4.37,1.34l.51.12-.17.49a49.56,49.56,0,0,0-1.72,5.81c-.11.49-.21,1-.27,1.46a3.83,3.83,0,0,0,0,1.35l0,.12.09.17,1.28,2.35c1,1.8,2,3.58,2.91,5.38l2.86,5.42-3.2-5.22c-1.07-1.74-2.09-3.51-3.14-5.26l-.78-1.32-.39-.66-.29-.49-.09-.24a4.27,4.27,0,0,1-.08-1.69,13.16,13.16,0,0,1,.24-1.55,53.14,53.14,0,0,1,1.53-5.46,31.63,31.63,0,0,1-4-1.21,10.76,10.76,0,0,1-4.14-2.51,3.34,3.34,0,0,1-.69-1.16,3.39,3.39,0,0,1-.11-.71Z" style="fill:#37474f"></path></g><g id="freepik--arm--inject-40"><path d="M217.8,136.63c-6.84,1.33-10.35,3.54-14.87,13.52-5.58,12.31-8.42,17.91-14.44,31.14-2.65,5.83-3,7.12,2.92,12.1,10.41,8.8,17.38,13,21.31,16.71a14.77,14.77,0,0,1,3.8,5.7s7.11-20.11,2.16-18.15c-2.6,1-11.49-10.69-13.78-13.2l12-18.37S223.21,152,217.8,136.63Z" style="fill:#b16668"></path><path d="M218.38,135.82c-5.46.74-9,1.21-13,7.86S190,171.79,187.7,177s-4.59,9.72.36,14.71c5.86,5.92,16.59,12.08,16.59,12.08a8.28,8.28,0,0,1,2-7.28c3-3.42,5.9-3.19,5.9-3.19L205.8,184c1.6-2.16,12.25-17.49,12.25-17.49S225,153.06,218.38,135.82Z" style="fill:#37474f"></path><path d="M214.74,205.19a9,9,0,0,1,1-4c.55-1.18.82,6,.82,6l-.37,7.5,0,.05a13.58,13.58,0,0,0-2.52-3.87,5,5,0,0,1,.44-2.44A6.31,6.31,0,0,0,214.74,205.19Z" style="fill:#9a4a4d"></path><g id="freepik--Glass--inject-40"><g id="freepik--glass--inject-40"><path d="M219.19,194.44l.76,22.27h0a2.65,2.65,0,0,0,.23,1,4.73,4.73,0,0,0,2.06,2,12.61,12.61,0,0,0,11.08,0,4.73,4.73,0,0,0,2.06-2,2.67,2.67,0,0,0,.22-.85h0a2.09,2.09,0,0,0,0-.25v0l.76-22.1a3.5,3.5,0,0,0,.64-1.84l-.92,27v.28a4.27,4.27,0,0,1-2.42,3.17,13,13,0,0,1-11.76,0,4.2,4.2,0,0,1-2.43-3.31v-.09l-.92-27A3.32,3.32,0,0,0,219.19,194.44Z" style="fill:#009999"></path><path d="M219.19,194.44l.76,22.27h0a2.65,2.65,0,0,0,.23,1,4.73,4.73,0,0,0,2.06,2,12.61,12.61,0,0,0,11.08,0,4.73,4.73,0,0,0,2.06-2,2.67,2.67,0,0,0,.22-.85h0a2.09,2.09,0,0,0,0-.25v0l.76-22.1a3.5,3.5,0,0,0,.64-1.84l-.92,27v.28a4.27,4.27,0,0,1-2.42,3.17,13,13,0,0,1-11.76,0,4.2,4.2,0,0,1-2.43-3.31v-.09l-.92-27A3.32,3.32,0,0,0,219.19,194.44Z" style="fill:#fff;opacity:0.8300000000000001"></path><path d="M221.25,196.26a14.45,14.45,0,0,0,13.06,0,6.39,6.39,0,0,0,2.06-1.8l-.76,22.1v.27h0a2.67,2.67,0,0,1-.22.85,4.73,4.73,0,0,1-2.06,2,12.61,12.61,0,0,1-11.08,0,4.73,4.73,0,0,1-2.06-2,2.65,2.65,0,0,1-.23-1h0l-.76-22.27A6.11,6.11,0,0,0,221.25,196.26Z" style="fill:#009999"></path><path d="M221.25,196.26a14.45,14.45,0,0,0,13.06,0,6.39,6.39,0,0,0,2.06-1.8l-.76,22.1v.27h0a2.67,2.67,0,0,1-.22.85,4.73,4.73,0,0,1-2.06,2,12.61,12.61,0,0,1-11.08,0,4.73,4.73,0,0,1-2.06-2,2.65,2.65,0,0,1-.23-1h0l-.76-22.27A6.11,6.11,0,0,0,221.25,196.26Z" style="fill:#fff;opacity:0.7000000000000001"></path><path d="M235.61,216.78a3.9,3.9,0,0,1-2.29,2.94,12.61,12.61,0,0,1-11.08,0,3.9,3.9,0,0,1-2.29-2.94l-.64-19c-.07-1.25.75-2.52,2.48-3.48a13.78,13.78,0,0,1,12,0c1.72,1,2.55,2.23,2.48,3.48Z" style="fill:#009999"></path><path d="M233.32,219.72a12.61,12.61,0,0,1-11.08,0c-3.06-1.71-3.06-4.49,0-6.2a12.61,12.61,0,0,1,11.08,0C236.38,215.23,236.38,218,233.32,219.72Z" style="opacity:0.05"></path><path d="M235.61,216.78a3.9,3.9,0,0,1-2.29,2.94,12.61,12.61,0,0,1-11.08,0,3.9,3.9,0,0,1-2.29-2.94l-.64-19c-.07-1.25.75-2.52,2.48-3.48a13.78,13.78,0,0,1,12,0c1.72,1,2.55,2.23,2.48,3.48Z" style="fill:#fff;opacity:0.15"></path><path d="M233.78,201a13.78,13.78,0,0,1-12,0c-3.32-1.84-3.32-4.82,0-6.66a13.78,13.78,0,0,1,12,0C237.09,196.13,237.09,199.11,233.78,201Z" style="fill:#fff;opacity:0.4"></path><path d="M221.79,201a13.94,13.94,0,0,0,10.56.63c-4.57.8-8.86-1.33-8.49-4.08l0-.17a11.49,11.49,0,0,1-2.64-1.07,8.18,8.18,0,0,1-1.06-.73C218.61,197.29,219.14,199.48,221.79,201Z" style="fill:#009999;opacity:0.2"></path><path d="M218.55,192.58v0a3.32,3.32,0,0,0,.64,1.82,6.11,6.11,0,0,0,2.06,1.82,14.45,14.45,0,0,0,13.06,0,6.39,6.39,0,0,0,2.06-1.8,3.5,3.5,0,0,0,.64-1.84c.06-1.41-.84-2.82-2.7-3.9a14.45,14.45,0,0,0-13.06,0C219.41,189.79,218.51,191.19,218.55,192.58Zm3.11-3.48a14,14,0,0,1,12.24,0c3.37,1.87,3.37,4.91,0,6.78a14,14,0,0,1-12.24,0C218.29,194,218.29,191,221.66,189.1Z" style="fill:#009999"></path><path d="M218.55,192.58v0a3.32,3.32,0,0,0,.64,1.82,6.11,6.11,0,0,0,2.06,1.82,14.45,14.45,0,0,0,13.06,0,6.39,6.39,0,0,0,2.06-1.8,3.5,3.5,0,0,0,.64-1.84c.06-1.41-.84-2.82-2.7-3.9a14.45,14.45,0,0,0-13.06,0C219.41,189.79,218.51,191.19,218.55,192.58Zm3.11-3.48a14,14,0,0,1,12.24,0c3.37,1.87,3.37,4.91,0,6.78a14,14,0,0,1-12.24,0C218.29,194,218.29,191,221.66,189.1Z" style="fill:#fff;opacity:0.88"></path><path d="M221.66,195.88a14,14,0,0,0,12.24,0c3.37-1.87,3.37-4.91,0-6.78a14,14,0,0,0-12.24,0C218.29,191,218.29,194,221.66,195.88Z" style="fill:#009999"></path><path d="M221.66,195.88a14,14,0,0,0,12.24,0c3.37-1.87,3.37-4.91,0-6.78a14,14,0,0,0-12.24,0C218.29,191,218.29,194,221.66,195.88Z" style="fill:#fff;opacity:0.7000000000000001"></path><path d="M235,195.14a6.49,6.49,0,0,1-1.09.74,14,14,0,0,1-12.24,0,6.93,6.93,0,0,1-1.09-.74,7,7,0,0,1,1.22-.85,13.78,13.78,0,0,1,12,0A7.35,7.35,0,0,1,235,195.14Z" style="fill:#009999"></path><path d="M235,195.14a6.49,6.49,0,0,1-1.09.74,14,14,0,0,1-12.24,0,6.93,6.93,0,0,1-1.09-.74,7,7,0,0,1,1.22-.85,13.78,13.78,0,0,1,12,0A7.35,7.35,0,0,1,235,195.14Z" style="fill:#fff;opacity:0.35000000000000003"></path><path d="M233.78,194.29l-.32-.16h0l-.51-.24a12.37,12.37,0,0,0-3.07-.82L229,193l-.77,0h-.42c-.27,0-.54,0-.81,0a14.58,14.58,0,0,0-2.76.41,10.42,10.42,0,0,0-2.42.94l-.33.2-.06,0-.26.16,0,0-.26.2h0l-.26.21a7.15,7.15,0,0,0,1.09.74,10,10,0,0,0,2.4.94C225.12,194.48,229.85,193.12,233.78,194.29Z" style="opacity:0.03"></path><path d="M220,217.89l0,1.54v.1c.1,2.29,3.53,4.12,7.73,4.12s7.62-1.82,7.74-4.09v-.14l0-1.55c-.41,2.15-3.74,3.82-7.79,3.82S220.42,220,220,217.89Z" style="fill:#009999;opacity:0.1"></path></g><g id="freepik--Ice--inject-40"><path d="M229.2,203.71l1.63,2.67a.64.64,0,0,0,.53.31l3.38-.31c.17,0,.22-.18.1-.37l-1.63-2.66a.64.64,0,0,0-.53-.31l-3.38.3C229.13,203.36,229.08,203.52,229.2,203.71Z" style="fill:#fff;opacity:0.5"></path><path d="M228.26,207.19l1.63,2.66a.78.78,0,0,0,.24.24l1-3.48a.79.79,0,0,1-.25-.23l-1.63-2.67c-.11-.18-.08-.34.07-.36a.45.45,0,0,0-.35.28l-.8,3A.91.91,0,0,0,228.26,207.19Z" style="fill:#fff;opacity:0.4"></path><path d="M230.13,210.09l.14.06h0l.07,0h0l3.38-.31a.47.47,0,0,0,.38-.29l.8-2.95a.82.82,0,0,0-.12-.56c.09.17,0,.31-.12.32l-3.38.31a.43.43,0,0,1-.28-.08Z" style="fill:#fff;opacity:0.30000000000000004"></path><path d="M225.55,213.75l2.76.93a.57.57,0,0,0,.56-.09l2.24-2.23c.11-.12,0-.26-.15-.33l-2.76-.93a.63.63,0,0,0-.56.09l-2.24,2.24C225.29,213.54,225.36,213.69,225.55,213.75Z" style="fill:#fff;opacity:0.5"></path><path d="M226.86,217.24l2.75.93a.7.7,0,0,0,.32,0l-1.31-3.48a.66.66,0,0,1-.31,0l-2.76-.93c-.18-.06-.25-.19-.16-.3a.42.42,0,0,0-.09.41l1.09,3A.89.89,0,0,0,226.86,217.24Z" style="fill:#fff;opacity:0.4"></path><path d="M229.93,218.19l.13,0,0,0,.06,0,0,0,2.23-2.24a.4.4,0,0,0,.1-.43l-1.09-3a.78.78,0,0,0-.41-.33c.16.07.2.2.1.31l-2.24,2.24a.48.48,0,0,1-.25.11Z" style="fill:#fff;opacity:0.30000000000000004"></path><path d="M220.82,209.16l2.91-.73a.57.57,0,0,0,.34-.42l.61-2.82c0-.2-.05-.32-.19-.29l-2.91.73a.58.58,0,0,0-.35.42l-.6,2.82C220.58,209.07,220.67,209.19,220.82,209.16Z" style="fill:#fff;opacity:0.4"></path><path d="M222.88,212l2.91-.73a.44.44,0,0,0,.22-.15l-2.07-2.8a.48.48,0,0,1-.21.15l-2.91.73c-.14,0-.23-.08-.2-.26a.81.81,0,0,0,.07.53l1.79,2.39A.38.38,0,0,0,222.88,212Z" style="fill:#fff;opacity:0.30000000000000004"></path><path d="M226,211.08a.47.47,0,0,0,.07-.12l0,0,0-.07s0,0,0-.05l.61-2.82a.91.91,0,0,0-.06-.56l-1.8-2.39a.36.36,0,0,0-.37-.14c.13,0,.2.11.16.29l-.61,2.82a.68.68,0,0,1-.13.27Z" style="fill:#fff;opacity:0.5"></path></g><g id="freepik--orange--inject-40"><path d="M217.82,190.45a10.52,10.52,0,0,0,.78,1.45,3.92,3.92,0,0,1,.16-.56,4.44,4.44,0,0,1,1.12-1.61,7,7,0,0,1,1.05-.82l.53.31v5.36h0l.12.06.3.12.15,0,.15.05h0l.14,0h0a3.1,3.1,0,0,0,.42.08H223a3.07,3.07,0,0,0,1.05-.08,3.81,3.81,0,0,0,.44-.15l0,0,1.12-.49a2.67,2.67,0,0,0,.7-.44l.11-.09.08-.08.1-.1a.39.39,0,0,0,.08-.1l0,0,.15-.2.09-.13L227,193l.07-.12.07-.13.06-.13.06-.14.06-.12c0-.06,0-.11,0-.16a.88.88,0,0,0,.05-.15l.06-.17a2.86,2.86,0,0,1,.07-.28l.06-.32,0-.16,0-.17c0-.06,0-.12,0-.17s0-.11,0-.17a1.09,1.09,0,0,1,0-.18v-.17a9.2,9.2,0,0,0-.81-3.8c-1.46-3.35-4.42-5.3-6.61-4.34l-1.17.51C216.94,183.59,216.35,187.09,217.82,190.45Z" style="fill:#009999"></path><path d="M221.46,193.88v.7h0l.12.06.3.12.15,0,.15.05h0l.14,0h0a3.1,3.1,0,0,0,.42.08H223a3.07,3.07,0,0,0,1.05-.08,3.81,3.81,0,0,0,.44-.15l0,0,1.12-.49a2.67,2.67,0,0,0,.7-.44l.11-.09.08-.08.1-.1a.39.39,0,0,0,.08-.1l0,0,.15-.2.09-.13L227,193l.07-.12.07-.13.06-.13.06-.14.06-.12c0-.06,0-.11,0-.16a.88.88,0,0,0,.05-.15l.06-.17a2.86,2.86,0,0,1,.07-.28l.06-.32,0-.16,0-.17c0-.06,0-.12,0-.17s0-.11,0-.17a1.09,1.09,0,0,1,0-.18v-.17l-1.17.67-.78.46-1.65.95-.29.17-1.51.87-.27.15Z" style="opacity:0.1"></path><path d="M217.82,190.45a10.52,10.52,0,0,0,.78,1.45,3.92,3.92,0,0,1,.16-.56,4.44,4.44,0,0,1,1.12-1.61,7,7,0,0,1,1.05-.82l.53.31v5.36h0l.12.06.3.12.15,0,.15.05h0l.14,0h0a3.1,3.1,0,0,0,.42.08H223a3.07,3.07,0,0,0,1.05-.08,3.81,3.81,0,0,0,.44-.15l0,0a4.15,4.15,0,0,0,2.06-3.83,9.16,9.16,0,0,0-.8-4c-1.47-3.35-4.43-5.3-6.62-4.34S216.35,187.09,217.82,190.45Z" style="fill:#fff;opacity:0.9500000000000001"></path><path d="M218.66,184.91c-.37-.51-.36-1.2,0-1.41l.24-.12.24-.09c.42-.14.93.33,1.06.94l.62,3.55c0,.18-.12.25-.23.1Z" style="fill:#009999"></path><path id="freepik--mascara--inject-40" d="M218,187.11a1.54,1.54,0,0,1-.62-1.3c0-.16,0-.31.08-.45a2.75,2.75,0,0,1,.11-.41c.12-.38.54-.28.85.19l2.07,3.17c.1.15.06.32,0,.25Z" style="fill:#009999"></path><path d="M218.71,189.77c-.29.13-.73-.3-.89-.87a2.14,2.14,0,0,1-.09-.34c0-.11-.06-.23-.08-.34-.12-.56.13-.89.51-.67l2,1.21c.11.07.16.29.08.33Z" style="fill:#009999"></path><path d="M218.76,191.34a4.44,4.44,0,0,1,1.12-1.61l-1.09.48C218.52,190.32,218.51,190.86,218.76,191.34Z" style="fill:#009999"></path><path d="M221.46,191.21v2.94l.1,0c.36.18.58-.14.48-.66a.31.31,0,0,0,0-.08Z" style="fill:#009999"></path><path id="freepik--mascara--inject-40" d="M224.11,192.89c.33.46.34,1.11,0,1.32-.12.07-.24.14-.37.2l-.4.14c-.39.1-.86-.34-1-.9l-.87-3.77c0-.17.11-.24.22-.09Z" style="fill:#009999"></path><path d="M222.41,189.67l2.72,1a1.21,1.21,0,0,1,.66,1.4c0,.11-.07.21-.11.31s-.09.2-.13.29c-.23.48-.83.45-1.21-.05l-2-2.7C222.18,189.81,222.26,189.61,222.41,189.67Z" style="fill:#009999"></path><path id="freepik--mascara--inject-40" d="M224.64,187.65c.39-.17.9.19,1.05.75.05.2.1.39.13.59s.06.39.08.59c.06.56-.32.93-.78.75l-3.06-1.19c-.14,0-.18-.28-.06-.34Z" style="fill:#009999"></path><path d="M223.05,185.42c.2-.48.78-.51,1.16-.07a3,3,0,0,1,.22.28,3.15,3.15,0,0,1,.22.29.89.89,0,0,1-.18,1.33l-2.32,1c-.13,0-.27-.13-.21-.28Z" style="fill:#009999"></path><path id="freepik--mascara--inject-40" d="M220.51,184c-.11-.6.25-1.05.74-.92a4.16,4.16,0,0,1,.5.16,4.52,4.52,0,0,1,.5.23,1.23,1.23,0,0,1,.57,1.43l-1.29,3.25c-.06.15-.26.07-.29-.11Z" style="fill:#009999"></path><g style="opacity:0.45"><path d="M218.66,184.91c-.37-.51-.36-1.2,0-1.41l.24-.12.24-.09c.42-.14.93.33,1.06.94l.62,3.55c0,.18-.12.25-.23.1Z" style="fill:#fff"></path><path id="freepik--mascara--inject-40" d="M218,187.11a1.54,1.54,0,0,1-.62-1.3c0-.16,0-.31.08-.45a2.75,2.75,0,0,1,.11-.41c.12-.38.54-.28.85.19l2.07,3.17c.1.15.06.32,0,.25Z" style="fill:#fff"></path><path d="M218.71,189.77c-.29.13-.73-.3-.89-.87a2.14,2.14,0,0,1-.09-.34c0-.11-.06-.23-.08-.34-.12-.56.13-.89.51-.67l2,1.21c.11.07.16.29.08.33Z" style="fill:#fff"></path><path d="M218.76,191.34a4.44,4.44,0,0,1,1.12-1.61l-1.09.48C218.52,190.32,218.51,190.86,218.76,191.34Z" style="fill:#fff"></path><path d="M221.46,191.21v2.94l.1,0c.36.18.58-.14.48-.66a.31.31,0,0,0,0-.08Z" style="fill:#fff"></path><path id="freepik--mascara--inject-40" d="M224.11,192.89c.33.46.34,1.11,0,1.32-.12.07-.24.14-.37.2l-.4.14c-.39.1-.86-.34-1-.9l-.87-3.77c0-.17.11-.24.22-.09Z" style="fill:#fff"></path><path d="M222.41,189.67l2.72,1a1.21,1.21,0,0,1,.66,1.4c0,.11-.07.21-.11.31s-.09.2-.13.29c-.23.48-.83.45-1.21-.05l-2-2.7C222.18,189.81,222.26,189.61,222.41,189.67Z" style="fill:#fff"></path><path id="freepik--mascara--inject-40" d="M224.64,187.65c.39-.17.9.19,1.05.75.05.2.1.39.13.59s.06.39.08.59c.06.56-.32.93-.78.75l-3.06-1.19c-.14,0-.18-.28-.06-.34Z" style="fill:#fff"></path><path d="M223.05,185.42c.2-.48.78-.51,1.16-.07a3,3,0,0,1,.22.28,3.15,3.15,0,0,1,.22.29.89.89,0,0,1-.18,1.33l-2.32,1c-.13,0-.27-.13-.21-.28Z" style="fill:#fff"></path><path id="freepik--mascara--inject-40" d="M220.51,184c-.11-.6.25-1.05.74-.92a4.16,4.16,0,0,1,.5.16,4.52,4.52,0,0,1,.5.23,1.23,1.23,0,0,1,.57,1.43l-1.29,3.25c-.06.15-.26.07-.29-.11Z" style="fill:#fff"></path></g><path d="M224,194.94A3.07,3.07,0,0,1,223,195h-.16a3.1,3.1,0,0,1-.42-.08h0l-.14,0h0l-.15-.05-.15,0-.3-.12-.12-.06h0v-5.36l2.94,5.58A2.7,2.7,0,0,1,224,194.94Z" style="opacity:0.07"></path></g><g id="freepik--Umbrella--inject-40"><path d="M248.07,184.79a14.68,14.68,0,0,0-5.57-.53,46,46,0,0,0-7.34-2.55l1.13-3,1.67-4.41C242.31,177,245.51,179.51,248.07,184.79Z" style="fill:#009999"></path><path d="M248.07,184.79a14.68,14.68,0,0,0-5.57-.53,46,46,0,0,0-7.34-2.55l1.13-3,1.67-4.41C242.31,177,245.51,179.51,248.07,184.79Z" style="opacity:0.15"></path><path d="M248.07,184.79a14.68,14.68,0,0,0-5.57-.53c.09-4.61-1.7-8-4.22-9.74A32.92,32.92,0,0,1,248.07,184.79Z" style="fill:#ebebeb"></path><path d="M236.29,178.72l-.34.91a16.47,16.47,0,0,1,6.51,3.12,15.61,15.61,0,0,1,5.61,2S244.44,180.43,236.29,178.72Z" style="opacity:0.15"></path><path d="M223.44,175.46a14.86,14.86,0,0,1,4.52,3.3,45.68,45.68,0,0,1,7.2,3l1.13-3,1.67-4.41C232.93,173.44,228.85,173.2,223.44,175.46Z" style="fill:#009999"></path><path d="M223.44,175.46a14.86,14.86,0,0,1,4.52,3.3,45.68,45.68,0,0,1,7.2,3l1.13-3,1.67-4.41C232.93,173.44,228.85,173.2,223.44,175.46Z" style="fill:#ebebeb"></path><path d="M223.44,175.46a14.86,14.86,0,0,1,4.52,3.3c3-3.52,6.55-4.85,9.61-4.5A32.82,32.82,0,0,0,223.44,175.46Z" style="fill:#009999"></path><path d="M223.44,175.46a14.86,14.86,0,0,1,4.52,3.3c3-3.52,6.55-4.85,9.61-4.5A32.82,32.82,0,0,0,223.44,175.46Z" style="opacity:0.15"></path><path d="M236.29,178.72l-.34.91a16.61,16.61,0,0,0-7-2,15.6,15.6,0,0,0-5.55-2.19S229.06,174.61,236.29,178.72Z" style="opacity:0.15"></path><path d="M238,174.54,226.74,208s-.05.07-.12.08a.4.4,0,0,1-.37-.13.14.14,0,0,1,0-.13l11.27-33.45Z" style="fill:#455a64"></path><path d="M237.78,174.52l-.05,0,0,0,0,0c-.07-.05,0-.07,0-.11l.12-.32c.09-.26.23-.61.37-1,.07-.17.15-.34.22-.5s.07-.16.11-.23l.1-.21.09-.17c0-.05.05-.09.07-.13l.06-.11a1.13,1.13,0,0,0,0,.12c0,.05,0,.09,0,.15a1.62,1.62,0,0,1,0,.19l0,.22-.06.25c0,.17-.09.35-.14.53-.1.37-.22.72-.3,1a3.1,3.1,0,0,0-.11.32s0,.08-.08.07h-.16Z" style="fill:#455a64"></path><path d="M248.07,184.79a15.79,15.79,0,0,0-5.25-2.66,15.38,15.38,0,0,0-6.77-2.78l1.91-5A22.69,22.69,0,0,1,248.07,184.79Z" style="fill:#009999"></path><path d="M242.82,182.13a15.38,15.38,0,0,0-6.77-2.78l1.91-5a11.69,11.69,0,0,1,3.58,4.67A24.09,24.09,0,0,1,242.82,182.13Z" style="fill:#f0f0f0"></path><path d="M223.45,175.47a15.56,15.56,0,0,1,5.7,1.49,15.37,15.37,0,0,1,6.9,2.39l1.91-5A22.67,22.67,0,0,0,223.45,175.47Z" style="fill:#f0f0f0"></path><path d="M229.15,177a15.37,15.37,0,0,1,6.9,2.39l1.91-5a11.66,11.66,0,0,0-5.77,1.13A21.63,21.63,0,0,0,229.15,177Z" style="fill:#009999"></path></g><path d="M226.21,207.8l3.39-10.08.63-.09L226.74,208s-.05.07-.12.08a.4.4,0,0,1-.37-.13A.14.14,0,0,1,226.21,207.8Z" style="fill:#fff;opacity:0.30000000000000004"></path><path d="M229.6,197.72l.19-.56.63-.1-.19.57Z" style="fill:#fff;opacity:0.5"></path></g><path d="M214.8,209.67a14.77,14.77,0,0,1,.51-1.55c.41-1.2.05-2.62,0-3.88a8.27,8.27,0,0,1,.68-3.74c.43-1,1.82-1.62,2.75-2.12l0,.32s.12,4.16.15,4.5c1.54,4,5.82,4.73,8.34,6.9,2.35,2,1.48,4.12.18,4.05a20.59,20.59,0,0,1-3.28-.6,13.71,13.71,0,0,1,4.18,2.38c2.67,2,1.72,3.64.7,3.61-.66,0-6.32-1.25-6.32-1.25a18.18,18.18,0,0,1,3.46,2c1.23,1,1.13,2.74-.29,2.55a42.12,42.12,0,0,1-7.25-2.14,2.83,2.83,0,0,1-.94-.78,21.5,21.5,0,0,1-2.13-3.37,4.75,4.75,0,0,1-.76-1.67,11.24,11.24,0,0,1,.19-1.82c.08-1.09-.36-2.18-.2-3.27A.36.36,0,0,0,214.8,209.67Z" style="fill:#b16668"></path><path d="M224.14,213.55a20.66,20.66,0,0,0-2.23-.94,7.46,7.46,0,0,1-2-.94c-.57-.5-1.14-1.07-1.72-1.62S217,209,216.39,208.4a10.35,10.35,0,0,0,1.34,2,13.47,13.47,0,0,0,1.69,1.78,5.68,5.68,0,0,0,2.34.91C222.55,213.3,223.34,213.44,224.14,213.55Z" style="fill:#9a4a4d"></path><path d="M222.7,218.29c-.69-.29-1.39-.53-2.08-.76a9.81,9.81,0,0,1-1.94-.78,2.76,2.76,0,0,1-.63-.73l-.63-.89c-.42-.6-.86-1.19-1.34-1.77a14.33,14.33,0,0,0,.87,2c.17.34.36.66.55,1a2.94,2.94,0,0,0,.79.94,6.5,6.5,0,0,0,2.19.73A13.7,13.7,0,0,0,222.7,218.29Z" style="fill:#9a4a4d"></path><path d="M205.89,184.17c-2.88-3.15-9-3.25-11.61-1.17,4.14-1.61,10.36,1.27,13.6,3.9Z" style="fill:#263238"></path></g></g></g></g><g id="freepik--character-1--inject-40"><g id="freepik--character--inject-40"><g id="freepik--arm--inject-40"><path d="M161.93,245.93a15.26,15.26,0,0,1,1.2,4.11c.41,3.5-1.15,6.87-2.13,10.25a3.17,3.17,0,0,0,.31,3.18.78.78,0,0,0,.65.36.91.91,0,0,0,.52-.41,21.23,21.23,0,0,0,2.4-4.29,22.69,22.69,0,0,1-.5,4.43,7.53,7.53,0,0,0-.31,3.51c.29,1.15,1.55,2.15,2.64,1.68a3.06,3.06,0,0,0,1.36-1.82l1.05-2.57a33.54,33.54,0,0,0,1.33-3.63,16.9,16.9,0,0,0-2-13.36,6.64,6.64,0,0,0-2.58-2.57,4.13,4.13,0,0,0-3.34-.07C161.89,245,161.65,245.24,161.93,245.93Z" style="fill:#f0997a"></path><path d="M173.22,252.83c0-4.62.16-9.44-.41-13.86s-1.75-20.85-2.25-25.56c-.66-6.2-1.11-11.18-1.76-15-.72-4.32-1-5.81-3.22-15-2.52-10.43-4.7-18.83-7-24-2.65-5.89-8.16-9.18-17.88-9.72-2.91-.16.71,20.12.71,20.12s6.8,18.56,9.08,25.09c.87,2.49,4,15.28,6.52,25.2,1.46,5.7,2.87,12.7,2.87,12.7.59,3.52-.24,4.39-1.17,7.08a64,64,0,0,0-2.64,10.43c-.42,2.46-.65,4.23-.83,6.09-.14,1.5.95,2,2.4.57,1.72-1.75,1.69-3.43,2.5-5.23,1-2.24,2.83-6,3.79-5.11s1.79,4.15,3,6.18a9.34,9.34,0,0,1,1.25,6.84c-.45,2.91-2.23,6.71-1.92,9.23s1.71,3.16,2.32,2.17,2.65-6.84,3.34-8.87A28.18,28.18,0,0,0,173.22,252.83Z" style="fill:#ffbda7"></path><path d="M140.76,149.1c9.73,1.36,15.69,2.76,18.91,11.16s7.42,28.44,8.7,33.22,2.23,20.33,2.23,20.33-1.76,2.65-6.43,3.62a16.58,16.58,0,0,1-8.85-.81L150,196.29l-9.82-26.84S136.82,149.74,140.76,149.1Z" style="fill:#009999"></path><path d="M140.76,149.1c9.73,1.36,15.69,2.76,18.91,11.16s7.42,28.44,8.7,33.22,2.23,20.33,2.23,20.33-1.76,2.65-6.43,3.62a16.58,16.58,0,0,1-8.85-.81L150,196.29l-9.82-26.84S136.82,149.74,140.76,149.1Z" style="fill:#fff;opacity:0.4"></path></g><g id="freepik--bottom--inject-40"><path d="M135.61,377.13l-1.73-16,18.36,1.21s-.28,8.7-.54,13.63c-.15,2.91,3.78,8.32,3.78,8.32s-8.63,4.62-13.24,3-7.07-7.36-7-8.62S135.61,377.13,135.61,377.13Z" style="fill:#ffa8a7"></path><path d="M179.81,402.18c.29,0,.78,3-.77,4.27-1.8,1.5-7.09,4-14.14,3.27S154,407,151.14,404.85s-6.86-5.2-10-5.81c-3-.56-6.21-1.76-7.17-2.6s-.89-4.64-.89-4.64Z" style="fill:#263238"></path><path d="M135.6,377.1a1.13,1.13,0,0,0-1,.91c-.2,1.06-.38,4.11-.82,5.84a28.71,28.71,0,0,0-.54,9.25c.42,1.95,5.26,3.22,8.36,4.27a39.52,39.52,0,0,1,10.09,5.73c3.35,2.49,10.35,5,14.94,4.92,5.43-.13,11.52-1.88,12.88-4.26,1.69-2.94,2.9-6.35-5.21-9.71-1.53-.63-6.94-3.5-8.78-4.55-5-2.82-8.5-5.43-10.86-10.54a2.83,2.83,0,0,0-1.18-1.55,2.69,2.69,0,0,0-1.57-.11c-1.34.2-6.68,1-7.89,1.55s-2.6,1.09-2.55,2.38a4,4,0,0,0,.32,1.31c.1.27.18.62-.06.78s-.55,0-.76-.19a19.35,19.35,0,0,1-2.21-2.4,8.1,8.1,0,0,0-1.29-1.19,16,16,0,0,1-1.4-.81C135.53,378.28,135.64,377.71,135.6,377.1Z" style="fill:#455a64"></path><path d="M151.64,403.1c-1.43-1.06-2.93-2.08-4.45-3h0s9.56,5.22,13.35,2.71c2.44-1.61,1.24-3.51,1.17-4.12s8.56-5.08,10.95-5.38h0c.67.33,1.24.6,1.59.74,8.11,3.36,6.9,6.77,5.21,9.71-1.36,2.38-5.76,4.3-12.78,4.42C162.09,408.25,155,405.59,151.64,403.1Z" style="fill:#37474f"></path><path d="M161,396.92c5,1.79,2.92,2.7,1.52,2.91s-9.9-4.25-15.1-8c-5.43-3.88-8.88-8.16-10.9-9.58-.75-.53-1.56-1.19-2.28-1.8.12-1,.21-2,.3-2.47a1.13,1.13,0,0,1,1-.91c0,.61-.07,1.18.42,1.63a16,16,0,0,0,1.4.81,8.1,8.1,0,0,1,1.29,1.19,19.35,19.35,0,0,0,2.21,2.4C145.38,388.25,156,395.13,161,396.92Z" style="fill:#37474f"></path><path d="M162.16,399.15a.5.5,0,0,1-.31-.1.44.44,0,0,1-.08-.65c1.39-1.65,8-5.6,11.71-5.29a.46.46,0,0,1,.45.5.47.47,0,0,1-.54.42c-3.44-.28-9.75,3.64-10.84,4.94A.57.57,0,0,1,162.16,399.15Z" style="fill:#263238"></path><path d="M157.76,396.71a.53.53,0,0,1-.32-.1.45.45,0,0,1-.08-.65c1.39-1.65,8-5.6,11.71-5.29a.47.47,0,0,1,.45.51.49.49,0,0,1-.54.42c-3.45-.29-9.74,3.63-10.84,4.93A.57.57,0,0,1,157.76,396.71Z" style="fill:#263238"></path><path d="M153.35,394.4a.55.55,0,0,1-.32-.1.45.45,0,0,1-.08-.65c1.39-1.65,8-5.6,11.72-5.29a.47.47,0,0,1,.44.51.48.48,0,0,1-.54.42c-3.44-.29-9.74,3.63-10.84,4.93A.49.49,0,0,1,153.35,394.4Z" style="fill:#263238"></path><path d="M149.26,391.75a.51.51,0,0,1-.32-.1.45.45,0,0,1-.08-.65c1.39-1.65,8-5.6,11.71-5.29a.47.47,0,0,1,.45.51.49.49,0,0,1-.54.42c-3.44-.29-9.74,3.63-10.84,4.93A.57.57,0,0,1,149.26,391.75Z" style="fill:#263238"></path><path d="M145.24,389.09a.48.48,0,0,1-.3-.09.45.45,0,0,1-.1-.65c1.91-2.33,8.87-5.66,12.56-5.35a.48.48,0,0,1,.45.51.5.5,0,0,1-.54.42c-3.32-.28-10,2.92-11.68,5A.5.5,0,0,1,145.24,389.09Z" style="fill:#263238"></path><path d="M99.31,385.88l4.19-15.19-18.68-2.9L84,382.5s-2,5.24-.85,7.18,13.56,4.12,14.72,2.86S99.31,385.88,99.31,385.88Z" style="fill:#ffa8a7"></path><path d="M97.39,419c-.61,4.71-1.64,7.74-3.71,10.27s-5.71,2.91-9.29,1.6-8.09-4.13-8.87-8.37-.4-7,.7-11.31Z" style="fill:#263238"></path><path d="M84,382.5c-1.5-.1-1.21,6.36-2.47,12.63-1.35,6.72-3.84,9.23-5,14.73-1.35,6.29-1.15,9.2,1.14,13.42s11,9.25,15.77,4.3c3.89-4,4.35-9,4.43-15.48a143,143,0,0,1,.69-16.34c.59-4.76,2-9,.77-9.69-.14.69-.3,1.57-.45,2.25-.11.52-.42,3.1-1.26,3a9.08,9.08,0,0,1,.09-1.81,2.05,2.05,0,0,0-.31-1.61,7,7,0,0,0-2.4-1.26c-1.45-.46-4-1-5.54-1.37-.74-.16-1.49-.29-2.24-.38a6.38,6.38,0,0,0-1.9,0,1.13,1.13,0,0,0-.85.54,1.74,1.74,0,0,0-.13.72,4.71,4.71,0,0,1-.27,1.29c-.06.18-.23.39-.44.32a.41.41,0,0,1-.22-.42c.05-.78.19-1.33.29-2.22,0-.41.16-1,.19-1.39S83.92,382.9,84,382.5Z" style="fill:#455a64"></path><path d="M77,408.09c-.2.9-1.47,6.9.34,8.26s3.38-3.19,3.38-3.19,4.85-.64,11.62,3c-.42.95.45,4.37,2.4,3.94s3.12-7.35,3.14-7.44c-.1,6.18-.65,11-4.42,14.92-4.76,4.95-13.49-.07-15.77-4.3s-2.49-7.13-1.14-13.42C76.63,409.23,76.78,408.65,77,408.09Z" style="fill:#37474f"></path><path d="M81.19,413.65c-.18,2.31-2.71,1.18-2.62-2.11s2.6-10.78,2.94-16.41c.54-7.73,1-12.73,2.47-12.63l0,.23-.4,3.22c-.07.46-.14.88-.17,1.38-.33,4.72-.52,13.9-1.25,18.16A65.32,65.32,0,0,0,81.19,413.65Z" style="fill:#37474f"></path><path d="M91.49,416a67.46,67.46,0,0,0,1.94-7.94c.78-4.21,3.42-12.63,4.74-17.16a10.38,10.38,0,0,0,.68-2.57c.14-.63.29-1.44.42-2.11a.57.57,0,0,0,0-.14c.91.53.54,4.19,0,6.08s-1.13,3.91-1.78,6.62c-1.63,5.34-1.89,13.39-2.93,16.46S90.86,418.2,91.49,416Z" style="fill:#37474f"></path><path d="M92.43,416.37a.5.5,0,0,1-.2-.08,20.51,20.51,0,0,0-11.45-2.63.63.63,0,0,1-.66-.44.45.45,0,0,1,.44-.55,21.49,21.49,0,0,1,12.24,2.82.48.48,0,0,1,.19.69A.54.54,0,0,1,92.43,416.37Z" style="fill:#263238"></path><path d="M94,411.51a.67.67,0,0,1-.18-.07A25.53,25.53,0,0,0,81,408.5a.61.61,0,0,1-.64-.46.46.46,0,0,1,.45-.53,26.23,26.23,0,0,1,13.54,3.11.49.49,0,0,1,.22.69A.52.52,0,0,1,94,411.51Z" style="fill:#263238"></path><path d="M81.65,403.77a.64.64,0,0,1-.45-.39.46.46,0,0,1,.39-.58c6.83-1.1,13.26,2.83,13.53,3a.48.48,0,0,1,.19.69.59.59,0,0,1-.76.11c-.06,0-6.31-3.85-12.66-2.82A.65.65,0,0,1,81.65,403.77Z" style="fill:#263238"></path><path d="M82.32,399.32a.62.62,0,0,1-.44-.39.44.44,0,0,1,.37-.58,20,20,0,0,1,13.81,3,.49.49,0,0,1,.14.71.59.59,0,0,1-.77.06c-.06,0-5.87-4-12.86-2.79A.53.53,0,0,1,82.32,399.32Z" style="fill:#263238"></path><path d="M83.09,394.32a.63.63,0,0,1-.44-.38.45.45,0,0,1,.36-.59c7.06-1.35,13.63,3,13.9,3.15a.48.48,0,0,1,.16.7.56.56,0,0,1-.76.07c-.07,0-6.42-4.2-13-2.95A.57.57,0,0,1,83.09,394.32Z" style="fill:#263238"></path><path d="M92.65,222c-3.51,37.25-4.36,90.59-4.36,90.59-.31,2.82-2.46,11.26-4.31,25.18-1.65,12.4,0,38.17,0,39.72,0,0,8.8,6.16,17,3.52,0,0,10.13-38.32,14.61-55.63,4.24-16.37,9.88-42.69,9.88-42.69l3.21,26.77s-.77,10.81-.59,18.26c.21,8.66,6.29,43.09,6.29,43.09s9.82,5.56,18.39-.94c0,0,5.22-50.39,5.64-60.79.82-20.42.65-61.89-1.83-87Z" style="fill:#455a64"></path><path d="M125.46,282.71l4.65-26.47s9.89-1.29,15-5.86c0,0-3.37,6.1-12.71,8.34l-4.59,24.09.83,26.67Z" style="fill:#263238"></path><path d="M83.48,377.86c2,2.81,10.44,5.82,17.77,3.41l1.67-6.53c-5.54,1.69-15,.53-19.44-3.17Z" style="fill:#37474f"></path><path d="M134.25,371.19c2.44,2.41,11.83,3.74,18.65.07l.37-5.87c-5.16,2.64-15,2.88-20,0Z" style="fill:#37474f"></path></g><g id="freepik--top--inject-40"><path d="M93.33,155.36s-2.85,4-4,11.6c-.36,2.43-1.33,8.13-.16,18.82,1.37,12.65,1.81,19.62,2,26.22.1,4.48,0,16,.18,23,7.92,8.6,53.43,14.1,66.58-.32-.12-4.27-.64-11.17-.79-18.23-.34-15.58,0-28.23-1.11-40.82-1.46-16.07-11.61-23.52-15.27-26.56a114.11,114.11,0,0,0-14.43.16c-7.3.76-14.72.64-16.45,1C105,151.34,93.33,155.36,93.33,155.36Z" style="fill:#009999"></path><g style="opacity:0.6000000000000001"><path d="M93.33,155.36s-2.85,4-4,11.6c-.36,2.43-1.33,8.13-.16,18.82,1.37,12.65,1.81,19.62,2,26.22.1,4.48,0,16,.18,23,7.92,8.6,53.43,14.1,66.58-.32-.12-4.27-.64-11.17-.79-18.23-.34-15.58,0-28.23-1.11-40.82-1.46-16.07-11.61-23.52-15.27-26.56a114.11,114.11,0,0,0-14.43.16c-7.3.76-14.72.64-16.45,1C105,151.34,93.33,155.36,93.33,155.36Z" style="fill:#fff"></path></g><path d="M122.53,95.81c-14-.92-22.25,8.47-23.51,16.93-2,13.1,9.57,22.18,12.48,29l29.71-30C141,106.51,136.56,96.74,122.53,95.81Z" style="fill:#263238"></path><g id="freepik--head--inject-40"><path d="M142.58,136.64a9.87,9.87,0,0,1-6.63,7.41,15.45,15.45,0,0,1-4.93.76l.27,4.14c1.88,2.94,1.79,5,1,9.09-.26,1.24-1.16,5.05-1.83,5.7-2.4-1.45-4.48-4.09-6.15-4.69-9.2-3.32-13.79-8.27-13.79-8.27l-.32-16.58s-2.13,2.71-6.09.55c-2.72-1.5-5.35-5.88-3.27-9.76s6.27-2.61,7.52-1.51,2,3.19,2.9,2.81a3.45,3.45,0,0,0,2.17-2.49,20.35,20.35,0,0,0,.7-7.61,6,6,0,0,0,2.3-2.85c1.39-3.27,2.64-5.51,2.64-5.51,8-3,15.56-4.74,21-.16,2.18,3.22,2.8,11,3.43,15.49A34.83,34.83,0,0,1,142.58,136.64Z" style="fill:#ffbda7"></path><path d="M131,144.81c-4.17.05-12.92-2.21-15.3-4.34s-3.67-6.71-3.67-6.71.75,5.85,2.65,8.33,6.34,3.32,9,3.78a58.15,58.15,0,0,0,7.39.49Z" style="fill:#f0997a"></path><polygon points="129.7 118.35 131.77 129.55 137.27 127.04 129.7 118.35" style="fill:#f0997a"></polygon><path d="M126.24,131.48l6.21,1.17a3.1,3.1,0,0,1-3.64,2.56A3.25,3.25,0,0,1,126.24,131.48Z" style="fill:#b16668"></path><path d="M128.81,135.21l.39,0a2.84,2.84,0,0,0-2.95-2.66A3.25,3.25,0,0,0,128.81,135.21Z" style="fill:#f28f8f"></path><path d="M135.71,114.83l3.9,1.3a2.1,2.1,0,0,0-1.33-2.62A2,2,0,0,0,135.71,114.83Z" style="fill:#263238"></path><path d="M123.83,116.53l-3.67,1.82a2.09,2.09,0,0,1,.94-2.78A2,2,0,0,1,123.83,116.53Z" style="fill:#263238"></path><path d="M125.61,121.62a1.78,1.78,0,1,1-1.78-1.74A1.76,1.76,0,0,1,125.61,121.62Z" style="fill:#263238"></path><path d="M138.89,120.61a1.78,1.78,0,1,1-1.77-1.74A1.75,1.75,0,0,1,138.89,120.61Z" style="fill:#263238"></path></g><path d="M140.29,110.1c-2.59-4.28-8.2-7.17-10.31,0-5.07-5.2-12.32-3.43-12.86,4.09a24.24,24.24,0,0,0,2.24,12.33,9.84,9.84,0,0,1-6.17-7.87s-.09,4.68.74,6.42c0,0-10.84,1.24-15-3.12,0,0-3.19-12.1,3.13-16-.09-5.51,7.63-13.53,23-12s18.59,8.69,18.59,8.69a19.67,19.67,0,0,0-4.95-1.58,15,15,0,0,1,6.17,9.13,11.9,11.9,0,0,1-2.68,10.36S142.88,114.37,140.29,110.1Z" style="fill:#37474f"></path><path d="M101.87,107l-5.16-2.72a3.2,3.2,0,0,1,4.14-1.11A2.65,2.65,0,0,1,101.87,107Z" style="fill:#37474f"></path><path d="M102.48,106.57l-5.23,2.66a2.88,2.88,0,0,1,1.27-3.9A3,3,0,0,1,102.48,106.57Z" style="fill:#37474f"></path><path d="M127.06,106a.21.21,0,0,0,.13-.07.21.21,0,0,0,0-.31c-5.9-5.32-19.44-4.12-24.27-.39a.21.21,0,0,0,0,.31.22.22,0,0,0,.32,0c4.6-3.55,18-4.71,23.66.37A.22.22,0,0,0,127.06,106Z" style="fill:#263238"></path><path d="M129.26,168.89c-4.86-2.41-17.91-14.74-19.59-20.13l-1.78,2.1s4.12,13.93,21,21.16Z" style="fill:#37474f"></path><path d="M133.44,167.94c1-1.88.86-14-1.56-18.46l2.86-.16c2.93,7.42,2.18,18.16.34,21.87Z" style="fill:#37474f"></path><path d="M134.32,174.84s7.8,34.42,8.26,37.94-4.63,12.54-5.38,13-6.41-7.55-6.67-10.36.75-40.44.75-40.44Z" style="fill:#37474f"></path><path d="M133.44,167.94a8.1,8.1,0,0,0-4.18.95c-.6,1.51-.58,3.71.18,4.65s2.17,2.35,3.6,2.09,2.38-2.21,2.33-3.95S133.44,167.94,133.44,167.94Z" style="fill:#455a64"></path><path d="M130.41,163.74c-3.68-2.16-3.54-5.17-5.62-6.35s-12.69-4.81-14.37-9.37l0-2.75L103.23,152a24.4,24.4,0,0,0,6.8,9,34,34,0,0,0,11.69,6.36s1.7-6,2.56-6.43S127.22,163.13,130.41,163.74Z" style="fill:#009999"></path><path d="M130.41,163.74c1-2.51.63-6.41,1.17-7.64s.9-3.51-.29-7.15l-.2-3,3.12,2.16c5,3.88,5.24,12.51,4.36,15.21-1.69-2.53-5-6.16-5.42-5.39S132.58,162.29,130.41,163.74Z" style="fill:#009999"></path><path d="M130.41,163.74c-3.68-2.16-3.54-5.17-5.62-6.35s-12.69-4.81-14.37-9.37l0-2.75L103.23,152a24.4,24.4,0,0,0,6.8,9,34,34,0,0,0,11.69,6.36s1.7-6,2.56-6.43S127.22,163.13,130.41,163.74Z" style="fill:#fff;opacity:0.4"></path><path d="M130.41,163.74c1-2.51.63-6.41,1.17-7.64s.9-3.51-.29-7.15l-.2-3,3.12,2.16c5,3.88,5.24,12.51,4.36,15.21-1.69-2.53-5-6.16-5.42-5.39S132.58,162.29,130.41,163.74Z" style="fill:#fff;opacity:0.4"></path><g id="freepik--arm--inject-40"><path d="M94.78,155.29c-8.32,2.37-11,2.66-17.7,15-5.92,10.95-12.84,20.93-17.48,29.89-3.31,6.39-3.72,9.26,2.73,15.05,11.37,10.24,20.41,18,24.69,22.4a16.67,16.67,0,0,1,4.08,6.53s8.52-22.38,2.94-20.34c-2.94,1.07-11-15-13.47-17.92l14.48-20.16C97.83,181.9,101.64,168.42,94.78,155.29Z" style="fill:#ffbda7"></path><path d="M95,154.89c-7,1.79-11,2.72-14.35,8.45-4.47,7.71-9,13.92-12,19.09s-6.92,12-9.08,15.9c-4,7.41-3.87,10.73-1.69,13.32s12.28,11,12.28,11,.79-2.21,5.22-6.06a17.74,17.74,0,0,1,9.27-4.25L81,206s9.29-13,12.42-16.7,6.42-11,6.25-19.75A27.21,27.21,0,0,0,95,154.89Z" style="fill:#009999"></path><path d="M95,154.89c-7,1.79-11,2.72-14.35,8.45-4.47,7.71-9,13.92-12,19.09s-6.92,12-9.08,15.9c-4,7.41-3.87,10.73-1.69,13.32s12.28,11,12.28,11,.79-2.21,5.22-6.06a17.74,17.74,0,0,1,9.27-4.25L81,206s9.29-13,12.42-16.7,6.42-11,6.25-19.75A27.21,27.21,0,0,0,95,154.89Z" style="fill:#fff;opacity:0.4"></path><g id="freepik--beer--inject-40"><g id="freepik--beers--inject-40"><g id="freepik--beer-bottle--inject-40"><path d="M112.94,252.91c0-.19.73-28.64.78-30.64s-2.07-4.78-2.81-6c-1-1.62-.92-3.83-1.09-6.53-.25-3.9-1.65-7.43-1.84-10.25a1.07,1.07,0,0,0,.38-1c-.12-.65-.83-.91-.82-1.08a4.31,4.31,0,0,0-2.82-.84,4.18,4.18,0,0,0-2.85.68c0,.16-.73.38-.88,1a.83.83,0,0,0,0,.22,1.12,1.12,0,0,0,.36.81c-.34,2.81-1.92,6.24-2.36,10.13-.31,2.69-.35,4.9-1.43,6.45-.8,1.17-3.07,3.81-3.12,5.82s-.79,30.64-.79,30.64h0c0,1.21.88,2.45,2.75,3.43a17.53,17.53,0,0,0,13.65.4C111.93,255.3,112.91,254.12,112.94,252.91Z" style="fill:#37474f"></path><path d="M107,199c.65-.3,1-.7,1-1.12v0c-.22-.21-.45-.33-.44-.43a4.31,4.31,0,0,0-2.82-.84,4.18,4.18,0,0,0-2.85.68c0,.09-.24.2-.47.4v0c0,.41.3.84.94,1.17A6,6,0,0,0,107,199Z" style="fill:#263238"></path><path d="M108.11,200.64c-.06-.39-.11-.77-.13-1.14a2.71,2.71,0,0,1-.72.46,6.7,6.7,0,0,1-5.25-.16,2.56,2.56,0,0,1-.69-.5c0,.36-.11.74-.19,1.13l.05.07a2.33,2.33,0,0,0,.8.63,6.74,6.74,0,0,0,5.25.15A2.23,2.23,0,0,0,108.11,200.64Z" style="fill:#263238"></path><path d="M108,197.42a3.21,3.21,0,0,0-.43-2.13l0,0-.09-.11-.23-.19h0a2,2,0,0,0-.29-.18,5.48,5.48,0,0,0-4.26-.13l-.3.16h0l0,0a1.06,1.06,0,0,0-.23.17l-.11.1,0,0a3.17,3.17,0,0,0-.55,2.11c0,.41.3.84.94,1.17a6,6,0,0,0,4.65.14C107.65,198.24,108,197.84,108,197.42Z" style="fill:#37474f"></path><path d="M102.59,196.72c-1.16-.61-1.14-1.54,0-2.08a5.48,5.48,0,0,1,4.26.13c1.16.61,1.13,1.54-.06,2.08A5.45,5.45,0,0,1,102.59,196.72Z" style="fill:#455a64"></path><path d="M103.21,196.44c-.83-.43-.81-1.1,0-1.48a3.85,3.85,0,0,1,3,.09c.82.43.81,1.1,0,1.48A3.84,3.84,0,0,1,103.21,196.44Z" style="fill:#263238"></path><path d="M112.63,222.24l-.78,30.33c0,.92-.86,1.79-2.35,2.47a14.54,14.54,0,0,1-6.31,1.07,14.73,14.73,0,0,1-6.25-1.44c-1.45-.77-2.24-1.69-2.21-2.61,0,0,.7-27.28.78-30.33,0-1.41,1.53-3.42,2.43-4.63.21-.28.4-.53.54-.74,1-1.42,1.18-2.68,1.4-5.11.05-.59.11-1.17.17-1.72a.28.28,0,0,1,0-.09c0-.11,0-.22,0-.33a2.12,2.12,0,0,1,1.27-1.18,7.88,7.88,0,0,1,6.12.18,2.13,2.13,0,0,1,1.2,1.28,2.83,2.83,0,0,1,0,.29v.11c0,.55.06,1.13.08,1.73.1,2.43.23,3.71,1.13,5.18.14.21.31.48.51.77C111.27,218.73,112.66,220.83,112.63,222.24Z" style="fill:#009999"></path><path d="M112.63,222.24l-.78,30.33c0,.92-.86,1.79-2.35,2.47a14.54,14.54,0,0,1-6.31,1.07,14.73,14.73,0,0,1-6.25-1.44c-1.45-.77-2.24-1.69-2.21-2.61,0,0,.7-27.28.78-30.33,0-1.41,1.53-3.42,2.43-4.63.21-.28.4-.53.54-.74,1-1.42,1.18-2.68,1.4-5.11.05-.59.11-1.17.17-1.72a.28.28,0,0,1,0-.09c0-.11,0-.22,0-.33a2.12,2.12,0,0,1,1.27-1.18,7.88,7.88,0,0,1,6.12.18,2.13,2.13,0,0,1,1.2,1.28,2.83,2.83,0,0,1,0,.29v.11c0,.55.06,1.13.08,1.73.1,2.43.23,3.71,1.13,5.18.14.21.31.48.51.77C111.27,218.73,112.66,220.83,112.63,222.24Z" style="opacity:0.2"></path><path d="M97.32,254.58c-3.22-1.69-3.16-4.28.15-5.78a15.18,15.18,0,0,1,11.81.35c3.22,1.69,3.16,4.28-.15,5.78A15.18,15.18,0,0,1,97.32,254.58Z" style="opacity:0.1"></path><path d="M108.71,209.68c0,.53-.46,1-1.3,1.43a7.92,7.92,0,0,1-6.12-.18c-.81-.43-1.22-1-1.23-1.49a1.24,1.24,0,0,1,0-.33,2.12,2.12,0,0,1,1.27-1.18,7.88,7.88,0,0,1,6.12.18,2.13,2.13,0,0,1,1.2,1.28A1,1,0,0,1,108.71,209.68Z" style="fill:#009999"></path><path d="M108.71,209.68c0,.53-.46,1-1.3,1.43a7.92,7.92,0,0,1-6.12-.18c-.81-.43-1.22-1-1.23-1.49a1.24,1.24,0,0,1,0-.33,2.12,2.12,0,0,1,1.27-1.18,7.88,7.88,0,0,1,6.12.18,2.13,2.13,0,0,1,1.2,1.28A1,1,0,0,1,108.71,209.68Z" style="opacity:0.4"></path><path d="M104.81,257.33a16.23,16.23,0,0,1-2.59-.6,9.74,9.74,0,0,1-3.65-1.93,3.11,3.11,0,0,1-1.17-2.35s.73-28.63.78-30.64,1.66-4.61,2.32-5.84c1.12-2.06.58-4.31.89-7,.4-3.43,1.08-6.29,1.46-8.85a.62.62,0,0,1,.14-1,1.72,1.72,0,0,1,.69-.28,1.1,1.1,0,0,1,0-1.73c-2.24-.82-2.12-2.49.59-2.83a4.81,4.81,0,0,0-1.67.36l-.3.16h0l0,0a1.06,1.06,0,0,0-.23.17l-.11.1,0,0a3.17,3.17,0,0,0-.55,2.11,1,1,0,0,0,.07.35,1.29,1.29,0,0,0-.49.69.83.83,0,0,0,0,.22,1.12,1.12,0,0,0,.36.81c-.34,2.81-1.92,6.24-2.36,10.13-.31,2.69-.35,4.9-1.43,6.45-.8,1.17-3.07,3.81-3.12,5.82s-.79,30.64-.79,30.64h0c0,1.21.88,2.45,2.75,3.43A17.06,17.06,0,0,0,104.81,257.33Z" style="opacity:0.2"></path><path d="M108.19,198.35c-.07-.16-.33.68-1.23,1.11a7.77,7.77,0,0,1-3.88.58,8,8,0,0,0,3.7-.16C108.28,199.29,108.34,198.67,108.19,198.35Z" style="fill:#fafafa;opacity:0.1"></path><path d="M107.21,195.07a1.88,1.88,0,0,1,.58,1.38,2.53,2.53,0,0,1-.09,1.35c-.15.29-1.18,1-3.24,1,1.47-.42,2.52-.76,2.85-1.39A2.35,2.35,0,0,0,107.21,195.07Z" style="fill:#fafafa;opacity:0.1"></path><path d="M111.9,222.21l-.79,30.65c0,.68-.73,1.38-2,1.94a13.79,13.79,0,0,1-5.94,1c6.1-.45,5.9-3.13,6-5.93l.63-24.38c.15-5.78-1.94-6.31-3-8.71s.07-6.27-.43-9.86c-.33-2.4-.71-3.76-.89-5.21a5.35,5.35,0,0,0,.92-.16c.16.81.35,1.65.56,2.51a34,34,0,0,1,1,5.75c0,.45.05.88.07,1.3.11,2.26.21,4.21,1.23,5.87.13.22.31.49.51.79C110.54,218.89,111.93,221,111.9,222.21Z" style="fill:#fafafa;opacity:0.2"></path></g></g></g><path d="M89.42,232.29a9.84,9.84,0,0,1,1.19-4.42c.64-1.31.74,6.76.74,6.76l-.63,8.42,0,.06A15.6,15.6,0,0,0,88,238.67a5.71,5.71,0,0,1,.56-2.73A7.15,7.15,0,0,0,89.42,232.29Z" style="fill:#f0997a"></path><path d="M89.36,237.32A14.11,14.11,0,0,1,90,235.6c.49-1.34.13-2.94.1-4.36a9.24,9.24,0,0,1,.87-4.18c.51-1.14,2.08-1.77,3.13-2.3l0,.36s0,4.68,0,5.07c1.61,4.49,6.37,5.51,9.12,8,2.56,2.36,1.52,4.68.07,4.56a24,24,0,0,1-3.64-.78,15.11,15.11,0,0,1,4.6,2.81c2.92,2.34,1.81,4.15.68,4.08-.73,0-7-1.61-7-1.61a19.66,19.66,0,0,1,3.8,2.35c1.35,1.21,1.19,3.12-.39,2.85a47,47,0,0,1-8-2.64,3.07,3.07,0,0,1-1-.91A25,25,0,0,1,90,245.08a5.63,5.63,0,0,1-.8-1.9,14.07,14.07,0,0,1,.27-2c.12-1.23-.35-2.47-.13-3.68Z" style="fill:#ffbda7"></path><path d="M99.67,242a22.8,22.8,0,0,0-2.46-1.14A8,8,0,0,1,95,239.74c-.63-.57-1.24-1.24-1.87-1.87s-1.29-1.25-1.91-1.91a11.26,11.26,0,0,0,1.44,2.32,14.61,14.61,0,0,0,1.83,2.05A6.31,6.31,0,0,0,97,241.44C97.9,241.67,98.78,241.85,99.67,242Z" style="fill:#f0997a"></path><path d="M97.93,247.29c-.76-.35-1.54-.65-2.3-.93a10.54,10.54,0,0,1-2.14-.94,3.4,3.4,0,0,1-.69-.84l-.68-1c-.44-.7-.93-1.37-1.44-2a15.75,15.75,0,0,0,.91,2.34c.18.38.38.74.59,1.12a3.57,3.57,0,0,0,.85,1.08,7.18,7.18,0,0,0,2.43.89A14.54,14.54,0,0,0,97.93,247.29Z" style="fill:#f0997a"></path><path d="M81,206c-3.13-3.65-9.25-4.23-12.21-2,4.67-1.67,10.67,2.28,14.21,5.35Z" style="fill:#009999"></path></g></g></g></g><g id="freepik--Briefcase--inject-40"><g id="freepik--briefcase--inject-40"><path d="M298.24,371.75h-.1a1.36,1.36,0,0,1-1.25-1.46l1.28-16.9c.75-9.83,6.23-21.13,12.46-25.72,3-2.2,6-2.75,8.61-1.57,3,1.39,4.91,5,5.26,9.9l1.07,15.15a1.36,1.36,0,0,1-1.26,1.46,1.35,1.35,0,0,1-1.45-1.26l-1.08-15.16c-.27-3.89-1.62-6.66-3.68-7.62-1.63-.75-3.71-.29-5.85,1.29-5.58,4.11-10.68,14.76-11.36,23.73L299.6,370.5A1.36,1.36,0,0,1,298.24,371.75Z" style="fill:#37474f"></path><path d="M349.8,392l-3.06-55.24a4.18,4.18,0,0,0-1.88-3.06l-1.48-.86a1.28,1.28,0,0,0-1.32-.1h0l-60.84,35.13,7.32,60.39,60.82-35.11h0A1.2,1.2,0,0,0,349.8,392Z" style="fill:#37474f"></path><path d="M279.84,423.72l7.52,4.34c1,.57,1.72.11,1.65-1L286,371.8a4.21,4.21,0,0,0-1.88-3.06l-1.49-.86a1.15,1.15,0,0,0-1.87,1l-2.55,51.77A3.68,3.68,0,0,0,279.84,423.72Z" style="fill:#263238"></path><path d="M305.7,413.51a.68.68,0,0,1-.68-.64l-1.32-22.33a.68.68,0,0,1,.64-.72.69.69,0,0,1,.72.64l1.32,22.33a.68.68,0,0,1-.64.72Z" style="fill:#009999"></path><path d="M333.33,397.89a.69.69,0,0,1-.68-.64l-1.31-22.33a.67.67,0,0,1,.64-.72.68.68,0,0,1,.71.64L334,397.17a.68.68,0,0,1-.64.72Z" style="fill:#009999"></path><path d="M292.86,401.38a3.6,3.6,0,0,1-5.4-2.92L286,371.79a4.19,4.19,0,0,0-1.89-3l-1.48-.86a1.3,1.3,0,0,0-1.21-.16l60.69-35.05v0a1.2,1.2,0,0,1,1.3.09l1.5.86a4.24,4.24,0,0,1,1.88,3.06l1.47,26.41a10,10,0,0,1-5,9.19Z" style="fill:#455a64"></path><polygon points="314.81 386.49 322.03 382.33 322.33 386.32 315.1 390.5 314.81 386.49" style="fill:#009999"></polygon></g></g><g id="freepik--Table--inject-40"><g id="freepik--table--inject-40"><g id="freepik--table--inject-40"><path d="M264.36,423.15c-10.82-6.25-28.36-6.25-39.18,0-5.41,3.12-8.11,7.22-8.11,11.31,0,.42,0,2.24,0,2.73.09,4,2.78,8,8.11,11.12,10.82,6.24,28.36,6.24,39.18,0,5.35-3.09,8.05-7.13,8.1-11.18,0-.47,0-2.29,0-2.73C272.44,430.32,269.74,426.26,264.36,423.15Z" style="fill:#37474f"></path><path d="M225.18,445.77c-10.82-6.25-10.82-16.37,0-22.62s28.36-6.25,39.18,0,10.82,16.37,0,22.62S236,452,225.18,445.77Z" style="fill:#455a64"></path><path d="M247.33,434.92h0V292.62h-5.15v142.3h0a1.21,1.21,0,0,0,.74,1.18,4,4,0,0,0,3.65,0A1.2,1.2,0,0,0,247.33,434.92Z" style="fill:#37474f"></path><path d="M198.31,244.34c25.67-14.83,67.3-14.83,93,0,12.83,7.41,19.24,20.44,19.24,30.16v1.89c0,9.71-6.41,19.42-19.24,26.84-25.68,14.82-67.31,14.82-93,0-12.84-7.42-19.25-17.13-19.25-26.84V274.5C179.06,264.78,185.47,251.75,198.31,244.34Z" style="fill:#009999"></path><path d="M198.31,244.34c25.67-14.83,67.3-14.83,93,0,12.83,7.41,19.24,20.44,19.24,30.16v1.89c0,9.71-6.41,19.42-19.24,26.84-25.68,14.82-67.31,14.82-93,0-12.84-7.42-19.25-17.13-19.25-26.84V274.5C179.06,264.78,185.47,251.75,198.31,244.34Z" style="opacity:0.2"></path><path d="M198.25,241.13c25.67-14.82,67.3-14.82,93,0,12.84,7.41,19.24,17.13,19.24,26.84v4.84c0,9.71-6.4,19.43-19.24,26.84-25.68,14.82-67.31,14.82-93,0C185.41,292.24,179,281.17,179,271.46V268C179,258.26,185.41,248.54,198.25,241.13Z" style="fill:#009999"></path><path d="M198.25,241.13c25.67-14.82,67.3-14.82,93,0,12.84,7.41,19.24,17.13,19.24,26.84v4.84c0,9.71-6.4,19.43-19.24,26.84-25.68,14.82-67.31,14.82-93,0C185.41,292.24,179,281.17,179,271.46V268C179,258.26,185.41,248.54,198.25,241.13Z" style="fill:#fff;opacity:0.4"></path><path d="M198.25,241.13c25.67-14.82,67.3-14.82,93,0,12.84,7.41,19.24,17.13,19.24,26.84v4.84c0,9.71-6.4,19.43-19.24,26.84-25.68,14.82-67.31,14.82-93,0C185.41,292.24,179,281.17,179,271.46V268C179,258.26,185.41,248.54,198.25,241.13Z" style="opacity:0.1"></path><path d="M291.23,294.81c25.67-14.82,25.67-38.86,0-53.68s-67.31-14.82-93,0-25.68,38.86,0,53.68S265.55,309.64,291.23,294.81Z" style="fill:#009999"></path><path d="M291.29,294.81C317,280,317,256,291.29,241.13s-67.31-14.82-93,0-25.68,38.86,0,53.68S265.61,309.64,291.29,294.81Z" style="fill:#fff;opacity:0.85"></path></g><g id="freepik--beer--inject-40"><path id="freepik--shadow--inject-40" d="M299.72,266.74c4.92,2.85,4.92,7.49,0,10.35s-12.89,2.85-17.81,0-4.92-7.49,0-10.35S294.8,263.88,299.72,266.74Z" style="fill:#009999;opacity:0.30000000000000004"></path><g id="freepik--beers--inject-40"><g id="freepik--beer-bottle--inject-40"><path d="M300.25,271.2V241.46c0-1.94-2.15-4.57-2.9-5.73-1-1.54-1-3.68-1.23-6.3-.34-3.78-1.8-7.15-2.05-9.89a1,1,0,0,0,.34-1c-.13-.62-.83-.86-.83-1a5.55,5.55,0,0,0-5.54,0c0,.15-.7.39-.83,1a.76.76,0,0,0,0,.21,1.12,1.12,0,0,0,.37.77c-.25,2.74-1.71,6.11-2.05,9.89-.23,2.62-.21,4.76-1.22,6.3-.76,1.16-2.91,3.79-2.91,5.73v29.75h0c0,1.17.92,2.34,2.77,3.24a17.27,17.27,0,0,0,13.35,0C299.33,273.55,300.25,272.38,300.25,271.2Z" style="fill:#37474f"></path><path d="M293.08,219.08c.63-.31.95-.71.94-1.11v0c-.21-.2-.44-.32-.44-.4a5.55,5.55,0,0,0-5.54,0c0,.08-.22.2-.44.4v0c0,.4.31.8.94,1.11A5.86,5.86,0,0,0,293.08,219.08Z" style="fill:#263238"></path><path d="M294.22,220.64a10.74,10.74,0,0,1-.15-1.1,2.52,2.52,0,0,1-.69.47,6.64,6.64,0,0,1-5.14,0,2.68,2.68,0,0,1-.69-.47,10.74,10.74,0,0,1-.15,1.1.18.18,0,0,0,.05.07,2.33,2.33,0,0,0,.79.59,6.73,6.73,0,0,0,5.14,0A2.18,2.18,0,0,0,294.22,220.64Z" style="fill:#263238"></path><path d="M294,217.53a3.05,3.05,0,0,0-.47-2.05l0,0-.09-.1-.23-.17,0,0h0c-.09-.05-.18-.11-.29-.16a5.36,5.36,0,0,0-4.16,0c-.11,0-.2.11-.29.16h0l0,0a1.28,1.28,0,0,0-.22.17l-.1.11,0,0a3.09,3.09,0,0,0-.47,2.07c0,.4.31.79.94,1.1a5.86,5.86,0,0,0,4.54,0C293.71,218.33,294,217.93,294,217.53Z" style="fill:#37474f"></path><path d="M288.73,217c-1.15-.56-1.15-1.47,0-2a5.36,5.36,0,0,1,4.16,0c1.15.55,1.15,1.46,0,2A5.45,5.45,0,0,1,288.73,217Z" style="fill:#455a64"></path><path d="M289.33,216.72c-.82-.4-.82-1.05,0-1.44a3.8,3.8,0,0,1,3,0c.82.39.82,1,0,1.44A3.89,3.89,0,0,1,289.33,216.72Z" style="fill:#263238"></path><path d="M285,273.27c-3.19-1.55-3.19-4.06,0-5.61a14.9,14.9,0,0,1,11.54,0c3.19,1.55,3.19,4.06,0,5.61A14.9,14.9,0,0,1,285,273.27Z" style="opacity:0.1"></path><path d="M292.42,275.72a15.65,15.65,0,0,1-2.54-.51,9.53,9.53,0,0,1-3.62-1.76,3,3,0,0,1-1.2-2.25V241.46c0-1.94,1.5-4.52,2.12-5.73,1-2,.46-4.19.69-6.8.3-3.34.89-6.13,1.21-8.62a.61.61,0,0,1,.1-1,1.6,1.6,0,0,1,.67-.29,1.06,1.06,0,0,1,0-1.68c-2.21-.73-2.14-2.36.5-2.76a4.34,4.34,0,0,0-1.62.4c-.11,0-.2.11-.29.16h0l0,0a1.28,1.28,0,0,0-.22.17l-.1.11,0,0a3.09,3.09,0,0,0-.47,2.07.78.78,0,0,0,.07.33,1.25,1.25,0,0,0-.46.69.76.76,0,0,0,0,.21,1.12,1.12,0,0,0,.37.77c-.25,2.74-1.71,6.11-2.05,9.89-.23,2.62-.21,4.76-1.22,6.3-.76,1.16-2.91,3.79-2.91,5.73v29.75h0c0,1.17.92,2.34,2.77,3.24A16.64,16.64,0,0,0,292.42,275.72Z" style="opacity:0.2"></path><path d="M294.25,218.43c-.08-.16-.31.67-1.18,1.1a7.65,7.65,0,0,1-3.77.68,8,8,0,0,0,3.61-.26C294.35,219.34,294.4,218.73,294.25,218.43Z" style="fill:#fafafa;opacity:0.1"></path><path d="M293.2,215.27a1.8,1.8,0,0,1,.61,1.32,2.46,2.46,0,0,1-.06,1.31c-.14.29-1.13,1-3.14,1.06,1.43-.45,2.44-.81,2.75-1.43A2.26,2.26,0,0,0,293.2,215.27Z" style="fill:#fafafa;opacity:0.1"></path><path d="M298.46,241.46V271.2c0,.66-.68,1.37-1.87,1.94a13.71,13.71,0,0,1-5.78,1.15c5.95-.62,5.69-3.21,5.69-5.93V244.7c0-5.62-2.06-6.06-3.14-8.36s-.08-6.08-.66-9.56c-.38-2.31-.79-3.62-1-5a6.52,6.52,0,0,0,.9-.18c.17.78.38,1.59.6,2.42a32.47,32.47,0,0,1,1.14,5.55c0,.43.06.84.1,1.25.16,2.19.3,4.08,1.34,5.66l.52.75C297.06,238.28,298.46,240.26,298.46,241.46Z" style="fill:#fafafa;opacity:0.2"></path></g></g></g><g id="freepik--beer--inject-40"><path id="freepik--shadow--inject-40" d="M212.45,272.35c4.92,2.86,4.92,7.49,0,10.35s-12.89,2.86-17.81,0-4.91-7.49,0-10.35S207.54,269.5,212.45,272.35Z" style="fill:#009999;opacity:0.30000000000000004"></path><g id="freepik--beers--inject-40"><g id="freepik--beer-bottle--inject-40"><path d="M213,276.82V247.08c0-2-2.14-4.58-2.9-5.73-1-1.54-1-3.68-1.23-6.3-.33-3.78-1.79-7.16-2-9.89a1,1,0,0,0,.35-1c-.14-.63-.84-.86-.84-1a5.62,5.62,0,0,0-5.54,0c0,.16-.69.4-.83,1a1.52,1.52,0,0,0,0,.21,1.11,1.11,0,0,0,.38.78c-.26,2.73-1.72,6.11-2,9.89-.24,2.62-.22,4.76-1.23,6.3-.76,1.15-2.91,3.78-2.91,5.73v29.74h0c0,1.18.92,2.35,2.76,3.25a17.27,17.27,0,0,0,13.35,0C212.06,279.17,213,278,213,276.82Z" style="fill:#37474f"></path><path d="M205.82,224.69c.63-.3.94-.7.94-1.11v0c-.22-.2-.45-.32-.45-.41a5.62,5.62,0,0,0-5.54,0c0,.09-.22.21-.44.41v0c0,.4.31.8.94,1.1A5.89,5.89,0,0,0,205.82,224.69Z" style="fill:#263238"></path><path d="M207,226.26c-.07-.38-.13-.74-.16-1.1a2.52,2.52,0,0,1-.69.47,6.62,6.62,0,0,1-5.13,0,2.52,2.52,0,0,1-.69-.47c0,.35-.09.72-.16,1.1l.05.07a2.36,2.36,0,0,0,.8.58,6.62,6.62,0,0,0,5.13,0A2.29,2.29,0,0,0,207,226.26Z" style="fill:#263238"></path><path d="M206.76,223.15a3,3,0,0,0-.48-2.05l0,0-.09-.1a2.31,2.31,0,0,0-.23-.18h0a2.48,2.48,0,0,0-.29-.17,5.43,5.43,0,0,0-4.15,0,2.48,2.48,0,0,0-.29.17h0l0,0a1.28,1.28,0,0,0-.22.17l-.1.1,0,0a3.08,3.08,0,0,0-.48,2.06c0,.4.31.8.94,1.11a5.89,5.89,0,0,0,4.55,0C206.45,224,206.76,223.55,206.76,223.15Z" style="fill:#37474f"></path><path d="M201.47,222.62c-1.15-.55-1.15-1.46,0-2a5.43,5.43,0,0,1,4.15,0c1.15.56,1.15,1.47,0,2A5.34,5.34,0,0,1,201.47,222.62Z" style="fill:#455a64"></path><path d="M202.06,222.33c-.82-.39-.82-1,0-1.44a3.92,3.92,0,0,1,3,0c.81.4.81,1.05,0,1.44A3.83,3.83,0,0,1,202.06,222.33Z" style="fill:#263238"></path><path d="M197.77,278.89c-3.19-1.55-3.19-4.06,0-5.61a14.93,14.93,0,0,1,11.55,0c3.19,1.55,3.19,4.06,0,5.61A14.93,14.93,0,0,1,197.77,278.89Z" style="opacity:0.1"></path><path d="M205.15,281.34a16.8,16.8,0,0,1-2.54-.51,9.4,9.4,0,0,1-3.61-1.76,3,3,0,0,1-1.21-2.25V247.08c0-2,1.51-4.52,2.12-5.73,1-2,.46-4.19.69-6.81.3-3.33.9-6.13,1.21-8.62a.61.61,0,0,1,.11-1,1.73,1.73,0,0,1,.66-.29,1.07,1.07,0,0,1,0-1.68c-2.21-.72-2.14-2.35.5-2.75a4.43,4.43,0,0,0-1.61.39,2.48,2.48,0,0,0-.29.17h0l0,0a1.28,1.28,0,0,0-.22.17l-.1.1,0,0a3.08,3.08,0,0,0-.48,2.06.84.84,0,0,0,.08.34,1.23,1.23,0,0,0-.47.68,1.52,1.52,0,0,0,0,.21,1.11,1.11,0,0,0,.38.78c-.26,2.73-1.72,6.11-2,9.89-.24,2.62-.22,4.76-1.23,6.3-.76,1.15-2.91,3.78-2.91,5.73v29.74h0c0,1.18.92,2.35,2.76,3.25A16.75,16.75,0,0,0,205.15,281.34Z" style="opacity:0.2"></path><path d="M207,224c-.08-.15-.31.67-1.18,1.11a7.65,7.65,0,0,1-3.77.68,8,8,0,0,0,3.61-.26C207.09,225,207.13,224.35,207,224Z" style="fill:#fafafa;opacity:0.1"></path><path d="M205.94,220.88a1.87,1.87,0,0,1,.6,1.33,2.27,2.27,0,0,1-.06,1.31c-.14.28-1.13,1-3.14,1.06,1.43-.45,2.44-.81,2.75-1.43A2.3,2.3,0,0,0,205.94,220.88Z" style="fill:#fafafa;opacity:0.1"></path><path d="M211.2,247.08v29.74c0,.66-.68,1.36-1.87,1.94a13.75,13.75,0,0,1-5.78,1.14c5.94-.61,5.68-3.2,5.68-5.93V250.31c0-5.61-2.06-6.05-3.13-8.35s-.08-6.08-.66-9.56c-.39-2.31-.79-3.62-1-5a6.23,6.23,0,0,0,.9-.18c.17.78.38,1.58.61,2.41a32.67,32.67,0,0,1,1.13,5.55c0,.43.07.85.1,1.26.16,2.19.31,4.08,1.34,5.66.14.21.32.46.53.75C209.79,243.9,211.2,245.88,211.2,247.08Z" style="fill:#fafafa;opacity:0.2"></path></g></g></g><g id="freepik--glass--inject-40"><path id="freepik--shadow--inject-40" d="M246.43,265.08c4.87,2.88,4.87,7.56,0,10.44s-12.78,2.88-17.65,0-4.88-7.56,0-10.44S241.55,262.19,246.43,265.08Z" style="fill:#009999;opacity:0.30000000000000004"></path><g id="freepik--glass--inject-40"><g id="freepik--glass--inject-40"><path d="M228.93,243.31l.86,23.53h0a2.59,2.59,0,0,0,.25,1,4.88,4.88,0,0,0,2.18,2.14,13.28,13.28,0,0,0,11.7,0,4.82,4.82,0,0,0,2.17-2.15,2.87,2.87,0,0,0,.24-.89h0a2.44,2.44,0,0,0,0-.27h0l.75-23.37a3.76,3.76,0,0,0,.68-1.94l-.92,28.5v.28a4.48,4.48,0,0,1-2.55,3.36,13.75,13.75,0,0,1-12.43,0c-1.67-1-2.53-2.22-2.57-3.49v-.09l-1-28.55A3.73,3.73,0,0,0,228.93,243.31Z" style="fill:#f5f5f5"></path><path d="M231.12,245.23a15.25,15.25,0,0,0,13.8,0,6.54,6.54,0,0,0,2.17-1.91l-.75,23.37h0v.27h0a2.87,2.87,0,0,1-.24.89,4.82,4.82,0,0,1-2.17,2.15,13.28,13.28,0,0,1-11.7,0,4.88,4.88,0,0,1-2.18-2.14,2.59,2.59,0,0,1-.25-1h0l-.86-23.53A6.55,6.55,0,0,0,231.12,245.23Z" style="fill:#fafafa"></path><path d="M243.92,270a13.28,13.28,0,0,1-11.7,0c-3.24-1.8-3.25-4.74,0-6.55a13.31,13.31,0,0,1,11.71,0C247.14,265.25,247.15,268.18,243.92,270Z" style="fill:#ebebeb"></path><path d="M228.25,241.35v0a3.73,3.73,0,0,0,.68,1.92,6.55,6.55,0,0,0,2.19,1.92,15.25,15.25,0,0,0,13.8,0,6.54,6.54,0,0,0,2.17-1.91,3.76,3.76,0,0,0,.68-1.94c.06-1.49-.9-3-2.87-4.12a15.25,15.25,0,0,0-13.8,0C229.16,238.39,228.21,239.87,228.25,241.35Zm3.29-3.69a14.82,14.82,0,0,1,12.93,0c3.57,2,3.58,5.19,0,7.17a14.82,14.82,0,0,1-12.93,0C228,242.86,228,239.65,231.54,237.66Z" style="fill:#fafafa"></path><path d="M231.55,244.83a14.82,14.82,0,0,0,12.93,0c3.57-2,3.56-5.19,0-7.17a14.82,14.82,0,0,0-12.93,0C228,239.65,228,242.86,231.55,244.83Z" style="fill:#ebebeb"></path><path d="M229.83,268.09l.06,1.62v.12c.12,2.41,3.74,4.34,8.19,4.33s8-1.94,8.17-4.34v-.14l.05-1.64c-.43,2.27-4,4-8.23,4S230.29,270.35,229.83,268.09Z" style="fill:#ebebeb"></path></g></g></g><g id="freepik--glass--inject-40"><path id="freepik--shadow--inject-40" d="M263.5,278.9c4.87,2.89,4.87,7.56,0,10.45s-12.78,2.88-17.65,0-4.88-7.56,0-10.44S258.62,276,263.5,278.9Z" style="fill:#009999;opacity:0.30000000000000004"></path><g id="freepik--glass--inject-40"><g id="freepik--glass--inject-40"><path d="M246,257.14l.86,23.53h0a2.51,2.51,0,0,0,.25,1,4.78,4.78,0,0,0,2.18,2.14,13.25,13.25,0,0,0,11.7,0,4.87,4.87,0,0,0,2.17-2.15,2.93,2.93,0,0,0,.24-.9h0a2.35,2.35,0,0,0,0-.26v0l.75-23.36a3.74,3.74,0,0,0,.68-2l-.92,28.5V284a4.5,4.5,0,0,1-2.55,3.36,13.7,13.7,0,0,1-12.42,0c-1.68-1-2.54-2.22-2.58-3.49v-.09l-1-28.55A3.63,3.63,0,0,0,246,257.14Z" style="fill:#f5f5f5"></path><path d="M248.19,259.06a15.25,15.25,0,0,0,13.8,0,6.77,6.77,0,0,0,2.17-1.91l-.75,23.36v.28h0a2.93,2.93,0,0,1-.24.9,4.87,4.87,0,0,1-2.17,2.15,13.25,13.25,0,0,1-11.7,0,4.78,4.78,0,0,1-2.18-2.14,2.51,2.51,0,0,1-.25-1h0L246,257.14A6.66,6.66,0,0,0,248.19,259.06Z" style="fill:#fafafa"></path><path d="M261,283.82a13.25,13.25,0,0,1-11.7,0c-3.24-1.8-3.24-4.73,0-6.55a13.34,13.34,0,0,1,11.71,0C264.22,279.07,264.22,282,261,283.82Z" style="fill:#ebebeb"></path><path d="M245.32,255.18v0a3.63,3.63,0,0,0,.67,1.93,6.66,6.66,0,0,0,2.19,1.92,15.25,15.25,0,0,0,13.8,0,6.77,6.77,0,0,0,2.17-1.91,3.74,3.74,0,0,0,.68-2c.06-1.48-.9-3-2.86-4.11a15.27,15.27,0,0,0-13.81,0C246.23,252.22,245.28,253.7,245.32,255.18Zm3.29-3.7a14.82,14.82,0,0,1,12.93,0c3.57,2,3.58,5.18,0,7.17a14.82,14.82,0,0,1-12.93,0C245.05,256.68,245.05,253.47,248.61,251.48Z" style="fill:#fafafa"></path><path d="M248.62,258.66a14.82,14.82,0,0,0,12.93,0c3.57-2,3.56-5.2,0-7.17a14.82,14.82,0,0,0-12.93,0C245.05,253.47,245.05,256.68,248.62,258.66Z" style="fill:#ebebeb"></path><path d="M246.9,281.92l.06,1.62v.12c.12,2.41,3.74,4.34,8.19,4.33s8-1.94,8.17-4.35v-.14l0-1.63c-.43,2.27-3.95,4-8.23,4.05S247.36,284.18,246.9,281.92Z" style="fill:#ebebeb"></path></g></g></g></g></g></svg>
