<?xml version="1.0" encoding="UTF-8" standalone="no"?><!-- Generator: Gravit.io -->
<svg xmlns="http://www.w3.org/2000/svg" xmlns:xlink="http://www.w3.org/1999/xlink" style="isolation:isolate" viewBox="0 0 64 64" width="64pt" height="64pt"><defs><clipPath id="_clipPath_D0INRcKXm6YntDvQEljvmyoSYvzRzVRW"><rect width="64" height="64"/></clipPath></defs><g clip-path="url(#_clipPath_D0INRcKXm6YntDvQEljvmyoSYvzRzVRW)"><circle vector-effect="non-scaling-stroke" cx="32" cy="32" r="32" fill="rgb(255,223,204)"/><path d=" M 15 48 Q 13.8 48 12.9 47.1 Q 12 46.2 12 45 L 12 19 Q 12 17.8 12.9 16.9 Q 13.8 16 15 16 L 49 16 Q 50.2 16 51.1 16.9 Q 52 17.8 52 19 L 52 45 Q 52 46.2 51.1 47.1 Q 50.2 48 49 48 L 15 48 Z  M 32 32.9 L 15 21.75 L 15 45 L 49 45 L 49 21.75 L 32 32.9 Z  M 32 29.9 L 48.8 19 L 15.25 19 L 32 29.9 Z  M 15 21.75 L 15 19 L 15 45 L 15 21.75 Z " fill="rgb(0,51,51)"/></g></svg>
