<?xml version="1.0" encoding="UTF-8" standalone="no"?><!-- Generator: Gravit.io -->
<svg xmlns="http://www.w3.org/2000/svg" xmlns:xlink="http://www.w3.org/1999/xlink" style="isolation:isolate" viewBox="0 0 64 64" width="64pt" height="64pt"><defs><clipPath id="_clipPath_Sf5LBPJN81zbC6UF6LV9nkYArydQsX6I"><rect width="64" height="64"/></clipPath></defs><g clip-path="url(#_clipPath_Sf5LBPJN81zbC6UF6LV9nkYArydQsX6I)"><circle vector-effect="non-scaling-stroke" cx="32" cy="32" r="32" fill="rgb(255,223,204)"/><clipPath id="_clipPath_XPwk4KWrm2gMgm8BjrHviL4G8aTzREkt"><circle vector-effect="non-scaling-stroke" cx="32" cy="32" r="32" fill="rgb(255,223,204)"/></clipPath><g clip-path="url(#_clipPath_XPwk4KWrm2gMgm8BjrHviL4G8aTzREkt)"><path d=" M 18.4 44.8 Q 17.44 44.8 16.72 44.08 Q 16 43.36 16 42.4 L 16 21.6 Q 16 20.64 16.72 19.92 Q 17.44 19.2 18.4 19.2 L 45.6 19.2 Q 46.56 19.2 47.28 19.92 Q 48 20.64 48 21.6 L 48 42.4 Q 48 43.36 47.28 44.08 Q 46.56 44.8 45.6 44.8 L 18.4 44.8 Z  M 18.4 42.4 L 45.6 42.4 L 45.6 24.96 L 18.4 24.96 L 18.4 42.4 Z  M 24.8 39.52 L 23.12 37.84 L 27.24 33.68 L 23.08 29.52 L 24.8 27.84 L 30.64 33.68 L 24.8 39.52 Z  M 32.4 39.68 L 32.4 37.28 L 41.2 37.28 L 41.2 39.68 L 32.4 39.68 Z " fill="rgb(0,51,51)"/></g></g></svg>
