<?xml version="1.0" encoding="UTF-8" standalone="no"?><!-- Generator: Gravit.io -->
<svg xmlns="http://www.w3.org/2000/svg" xmlns:xlink="http://www.w3.org/1999/xlink" style="isolation:isolate" viewBox="0 0 64 64" width="64pt" height="64pt"><defs><clipPath id="_clipPath_AEKHOQvO8wnNjNv72RFKEopfTakpavAW"><rect width="64" height="64"/></clipPath></defs><g clip-path="url(#_clipPath_AEKHOQvO8wnNjNv72RFKEopfTakpavAW)"><circle vector-effect="non-scaling-stroke" cx="32" cy="32" r="32" fill="rgb(255,223,204)"/><path d=" M 31.75 31.356 Q 32.833 30.022 33.354 28.606 Q 33.875 27.189 33.875 25.314 Q 33.875 23.439 33.354 22.022 Q 32.833 20.606 31.75 19.272 Q 34.917 18.564 37.313 20.231 Q 39.708 21.897 39.708 25.314 Q 39.708 28.731 37.313 30.397 Q 34.917 32.064 31.75 31.356 Z  M 40.75 44.939 L 40.75 41.022 Q 40.75 38.897 39.667 37.064 Q 38.583 35.231 35.917 33.981 Q 43.125 34.897 45.771 36.647 Q 48.417 38.397 48.417 41.022 L 48.417 44.939 L 40.75 44.939 Z  M 45.333 32.897 L 45.333 28.731 L 41.167 28.731 L 41.167 26.231 L 45.333 26.231 L 45.333 22.064 L 47.833 22.064 L 47.833 26.231 L 52 26.231 L 52 28.731 L 47.833 28.731 L 47.833 32.897 L 45.333 32.897 Z  M 25.125 31.564 Q 22.375 31.564 20.625 29.814 Q 18.875 28.064 18.875 25.314 Q 18.875 22.564 20.625 20.814 Q 22.375 19.064 25.125 19.064 Q 27.875 19.064 29.625 20.814 Q 31.375 22.564 31.375 25.314 Q 31.375 28.064 29.625 29.814 Q 27.875 31.564 25.125 31.564 Z  M 12 44.939 L 12 41.022 Q 12 39.564 12.771 38.376 Q 13.542 37.189 14.833 36.606 Q 17.833 35.272 20.188 34.689 Q 22.542 34.106 25.125 34.106 Q 27.708 34.106 30.042 34.689 Q 32.375 35.272 35.375 36.606 Q 36.667 37.189 37.458 38.376 Q 38.25 39.564 38.25 41.022 L 38.25 44.939 L 12 44.939 Z  M 25.125 29.064 Q 26.75 29.064 27.813 28.001 Q 28.875 26.939 28.875 25.314 Q 28.875 23.689 27.813 22.626 Q 26.75 21.564 25.125 21.564 Q 23.5 21.564 22.438 22.626 Q 21.375 23.689 21.375 25.314 Q 21.375 26.939 22.438 28.001 Q 23.5 29.064 25.125 29.064 Z  M 14.5 42.439 L 35.75 42.439 L 35.75 41.022 Q 35.75 40.356 35.417 39.772 Q 35.083 39.189 34.375 38.856 Q 31.5 37.522 29.5 37.064 Q 27.5 36.606 25.125 36.606 Q 22.75 36.606 20.771 37.064 Q 18.792 37.522 15.833 38.856 Q 15.208 39.147 14.854 39.751 Q 14.5 40.356 14.5 41.022 L 14.5 42.439 Z " fill="rgb(0,51,51)"/></g></svg>
